<?xml version="1.0" encoding="utf-8"?>
<svg width="342px" height="359px" viewBox="0 0 342 359" version="1.1" xmlns:xlink="http://www.w3.org/1999/xlink" xmlns="http://www.w3.org/2000/svg">
  <defs>
    <path d="M0 0L342 0L342 359L0 359L0 0Z" id="path_1" />
    <path d="M0 0L341.678 0L341.678 341.678L0 341.678L0 0Z" id="path_2" />
    <clipPath id="clip_1">
      <use xlink:href="#path_1" />
    </clipPath>
    <clipPath id="clip_2">
      <use xlink:href="#path_2" />
    </clipPath>
  </defs>
  <g id="Frame" clip-path="url(#clip_1)">
    <path d="M0 0L342 0L342 359L0 359L0 0Z" id="Frame" fill="#FFFFFF" fill-opacity="0" fill-rule="evenodd" stroke="none" />
    <g id="Discord" clip-path="url(#clip_2)" transform="translate(0.3223877 -1.5258789E-05)">
      <path d="M0 0L341.678 0L341.678 341.678L0 341.678L0 0Z" id="Discord" fill="#FFFFFF" fill-opacity="0" fill-rule="evenodd" stroke="none" />
      <path d="M226.711 50.0633C224.762 50.02 222.823 50.1569 220.927 50.4665C209.55 52.3239 199.55 60.2888 195.69 71.8373C194.851 74.3468 194.094 76.8573 193.465 79.4011C183.863 78.5214 175.834 78.3584 170.858 78.3584C165.881 78.3584 157.853 78.5214 148.249 79.4011C147.622 76.8619 146.862 74.3564 146.024 71.8512C142.164 60.3028 132.165 52.3378 120.788 50.4804C116.996 49.8613 113.044 49.9295 109.122 50.7585C93.3893 54.0858 70.9194 60.5417 53.1997 74.9241C53.0088 75.0797 52.8232 75.2421 52.6434 75.4106C47.0509 80.6272 43.1939 87.671 38.4334 97.6017C33.6728 107.532 28.7354 120.025 24.1954 134.267C15.1156 162.751 7.6494 198.171 7.6494 233.279C7.6494 235.113 8.12304 236.918 9.02457 238.518C25.7237 268.15 61.9752 279.385 84.1784 283.862C96.426 286.331 109.043 281.302 116.353 271.168L125.154 258.96C138.309 261.714 153.539 263.534 170.858 263.534C188.176 263.534 203.405 261.714 216.561 258.96L225.348 271.154C232.655 281.299 245.287 286.318 257.536 283.848C279.74 279.371 315.977 268.136 332.675 238.507C333.577 236.907 334.05 235.101 334.05 233.265C334.05 198.157 326.599 162.736 317.52 134.253C312.979 120.012 308.028 107.519 303.268 97.5878C298.507 87.6571 294.647 80.6133 289.058 75.3968C288.878 75.2281 288.692 75.0659 288.501 74.9101C270.783 60.5288 248.32 54.0721 232.578 50.7446C230.618 50.3301 228.66 50.1066 226.711 50.0633L226.711 50.0633ZM226.165 71.4055C226.819 71.4256 227.488 71.501 228.154 71.6418C242.064 74.5823 261.598 80.8449 274.649 91.2746C275.525 92.1603 279.848 98.1441 284.007 106.819C288.237 115.644 292.89 127.335 297.161 140.732C305.409 166.606 311.915 198.91 312.371 229.955C300.559 247.918 271.697 259.199 253.307 262.908C249.239 263.728 245.201 262.162 242.684 258.667L238.554 252.952C242.828 251.502 246.848 249.996 250.429 248.475C268.326 240.873 278.223 232.583 278.223 232.583C282.712 228.755 283.247 222.013 279.419 217.524C275.591 213.036 268.849 212.5 264.36 216.329C264.36 216.329 257.615 222.232 242.086 228.829C226.557 235.425 202.93 242.177 170.855 242.177C138.779 242.177 115.152 235.425 99.623 228.829C84.0937 222.232 77.3484 216.329 77.3484 216.329C75.457 214.666 73.0389 213.725 70.5213 213.673C65.9751 213.574 61.8647 216.364 60.279 220.626C58.6935 224.888 59.9804 229.686 63.4858 232.583C63.4858 232.583 73.3826 240.873 91.2804 248.475C94.8605 249.996 98.8805 251.502 103.155 252.952L99.0253 258.681C96.4965 262.186 92.4573 263.756 88.3884 262.936C69.9977 259.227 41.1354 247.933 29.3231 229.969C29.7799 198.924 36.286 166.621 44.5343 140.746C48.805 127.348 53.4716 115.658 57.7016 106.833C61.8601 98.1586 66.1729 92.1709 67.0453 91.2885C80.0961 80.8596 99.6362 74.5964 113.541 71.6558C118.869 70.5296 124.004 73.3605 125.763 78.6218C126.22 79.9888 126.551 81.2542 126.903 82.5288C110.989 85.6866 93.2357 91.1705 76.4168 101.161C72.9965 103.038 70.8723 106.631 70.8765 110.533C70.8804 114.435 73.0121 118.024 76.4364 119.895C79.8607 121.765 84.0325 121.619 87.3177 119.514C118.336 101.09 156.67 99.7143 170.855 99.7143C185.039 99.7143 223.372 101.09 254.391 119.514C257.676 121.619 261.848 121.765 265.273 119.895C268.697 118.024 270.828 114.435 270.833 110.533C270.836 106.631 268.712 103.038 265.292 101.161C248.469 91.1676 230.709 85.686 214.792 82.5288C215.144 81.2507 215.473 79.9794 215.932 78.6079C217.471 74.0042 221.589 71.2648 226.165 71.4055L226.165 71.4055ZM124.818 156.6C111.237 156.67 100.26 169.271 100.26 184.791C100.26 200.312 111.237 212.913 124.818 212.982C138.398 212.913 149.375 200.312 149.375 184.791C149.375 169.271 138.398 156.67 124.818 156.6L124.818 156.6ZM216.711 156.6C202.951 156.6 191.795 169.35 191.795 185.076C191.795 200.804 202.951 213.552 216.711 213.552C230.472 213.552 241.628 200.804 241.628 185.076C241.628 169.35 230.472 156.6 216.711 156.6L216.711 156.6Z" id="Shape" fill="#20093E" fill-rule="evenodd" stroke="none" />
    </g>
  </g>
</svg>