<?xml version="1.0" encoding="utf-8"?>
<svg width="400px" height="400px" viewBox="0 0 400 400" version="1.1" xmlns:xlink="http://www.w3.org/1999/xlink" xmlns="http://www.w3.org/2000/svg">
  <defs>
    <path d="M0 0L400 0L400 400L0 400L0 0Z" id="path_1" />
    <path d="M0 0L353.335 0L353.335 353.335L0 353.335L0 0Z" id="path_2" />
    <clipPath id="clip_1">
      <use xlink:href="#path_1" />
    </clipPath>
    <clipPath id="clip_2">
      <use xlink:href="#path_2" />
    </clipPath>
  </defs>
  <g id="Twitter/LinkedIn Profile Photo" clip-path="url(#clip_1)">
    <path d="M0 0L400 0L400 400L0 400L0 0Z" id="TwitterLinkedIn-Profile-Photo" fill="#FFFFFF" fill-opacity="0" fill-rule="evenodd" stroke="none" />
    <g id="Discord 2" clip-path="url(#clip_2)" transform="translate(24 23.664703)">
      <path d="M0 0L353.335 0L353.335 353.335L0 353.335L0 0Z" id="Discord-2" fill="#1F1F1F" fill-opacity="0" fill-rule="evenodd" stroke="none" />
      <path d="M234.426 51.7646C232.411 51.7198 230.406 51.8615 228.445 52.1816C216.68 54.1023 206.34 62.3386 202.349 74.2804C201.481 76.8755 200.698 79.4715 200.048 82.1021C190.118 81.1922 181.815 81.0236 176.67 81.0236C171.524 81.0236 163.222 81.1922 153.291 82.1021C152.642 79.4762 151.857 76.8854 150.99 74.2947C146.999 62.353 136.659 54.1167 124.895 52.1959C120.973 51.5557 116.887 51.6263 112.831 52.4835C96.5622 55.9242 73.3265 62.6001 55.0032 77.4724C54.8057 77.6334 54.6139 77.8011 54.4278 77.9754C48.6449 83.3697 44.6564 90.6536 39.7337 100.923C34.8109 111.192 29.7052 124.11 25.0106 138.837C15.6213 168.292 7.90073 204.918 7.90073 241.222C7.90073 243.119 8.39051 244.986 9.32276 246.64C26.591 277.281 64.0776 288.899 87.0372 293.529C99.7023 296.082 112.749 290.882 120.308 280.402L129.409 267.779C143.013 270.627 158.761 272.509 176.67 272.509C194.578 272.509 210.327 270.627 223.931 267.779L233.017 280.388C240.573 290.878 253.635 296.07 266.302 293.515C289.262 288.884 326.734 277.267 344.001 246.628C344.934 244.974 345.422 243.107 345.422 241.208C345.422 204.904 337.719 168.276 328.329 138.823C323.634 124.096 318.514 111.178 313.592 100.908C308.669 90.6393 304.677 83.3554 298.898 77.9612C298.711 77.7868 298.519 77.619 298.322 77.458C280 62.5867 256.772 55.9099 240.493 52.4691C238.466 52.0405 236.441 51.8094 234.426 51.7646L234.426 51.7646ZM233.864 73.8377C234.54 73.8584 235.231 73.9364 235.92 74.082C250.305 77.1227 270.503 83.5986 284 94.3836C284.905 95.2996 289.376 101.487 293.677 110.458C298.051 119.583 302.862 131.672 307.278 145.526C315.808 172.282 322.536 205.687 323.006 237.789C310.792 256.364 280.947 268.03 261.93 271.864C257.724 272.712 253.548 271.093 250.945 267.479L246.675 261.57C251.094 260.07 255.252 258.513 258.954 256.941C277.461 249.079 287.695 240.506 287.695 240.506C292.337 236.548 292.89 229.576 288.932 224.935C284.973 220.294 278.002 219.74 273.36 223.698C273.36 223.698 266.385 229.803 250.327 236.624C234.268 243.446 209.837 250.427 176.669 250.427C143.5 250.427 119.068 243.446 103.01 236.624C86.9513 229.803 79.9763 223.698 79.9763 223.698C78.0205 221.979 75.5201 221.006 72.9166 220.952C68.2155 220.85 63.965 223.735 62.3253 228.142C60.6857 232.549 62.0164 237.511 65.6413 240.506C65.6413 240.506 75.8753 249.079 94.383 256.941C98.0851 258.513 102.242 260.07 106.662 261.57L102.392 267.493C99.7768 271.118 95.6002 272.742 91.3924 271.893C72.3752 268.058 42.5294 256.379 30.3146 237.803C30.787 205.701 37.5148 172.297 46.0441 145.54C50.4603 131.686 55.2859 119.597 59.6601 110.472C63.9602 101.502 68.42 95.3105 69.3221 94.398C82.8176 83.6138 103.023 77.1372 117.402 74.0965C122.911 72.9319 128.222 75.8592 130.04 81.2998C130.513 82.7134 130.856 84.0219 131.219 85.3399C114.763 88.6052 96.405 94.276 79.0129 104.606C75.476 106.548 73.2797 110.264 73.2839 114.298C73.2879 118.333 75.4922 122.045 79.0331 123.979C82.5743 125.913 86.8881 125.762 90.2854 123.585C122.361 104.533 162.001 103.111 176.669 103.111C191.336 103.111 230.976 104.533 263.052 123.585C266.449 125.762 270.763 125.913 274.304 123.979C277.845 122.044 280.049 118.333 280.053 114.298C280.057 110.264 277.861 106.548 274.324 104.606C256.927 94.2731 238.562 88.6047 222.103 85.3399C222.467 84.0183 222.808 82.7037 223.281 81.2853C224.873 76.5249 229.132 73.6922 233.864 73.8377L233.864 73.8377ZM129.077 161.945C115.033 162.017 103.682 175.047 103.682 191.096C103.682 207.146 115.033 220.176 129.076 220.248C143.12 220.176 154.47 207.146 154.47 191.097C154.471 175.047 143.12 162.017 129.077 161.945L129.077 161.945ZM224.109 161.945C209.879 161.945 198.344 175.129 198.344 191.391C198.344 207.655 209.879 220.837 224.109 220.837C238.339 220.837 249.874 207.655 249.874 191.391C249.874 175.129 238.339 161.945 224.109 161.945L224.109 161.945Z" id="Shape" fill="#FFFFFF" fill-rule="evenodd" stroke="none" />
    </g>
  </g>
</svg>