<?xml version="1.0" encoding="utf-8"?>
<svg width="347px" height="337px" viewBox="0 0 347 337" version="1.1" xmlns:xlink="http://www.w3.org/1999/xlink" xmlns="http://www.w3.org/2000/svg">
  <defs>
    <path d="M0 0L347 0L347 337L0 337L0 0Z" id="path_1" />
    <path d="M0 0L327.678 0L327.678 327.678L0 327.678L0 0Z" id="path_2" />
    <clipPath id="clip_1">
      <use xlink:href="#path_1" />
    </clipPath>
    <clipPath id="clip_2">
      <use xlink:href="#path_2" />
    </clipPath>
  </defs>
  <g id="Frame" clip-path="url(#clip_1)">
    <path d="M0 0L347 0L347 337L0 337L0 0Z" id="Frame" fill="#FFFFFF" fill-opacity="0" fill-rule="evenodd" stroke="none" />
    <g id="Github" clip-path="url(#clip_2)" transform="translate(0 -1.5258789E-05)">
      <path d="M0 0L327.678 0L327.678 327.678L0 327.678L0 0Z" id="Github" fill="#FFC107" fill-opacity="0" fill-rule="evenodd" stroke="none" />
      <path d="M163.835 32.7687C91.451 32.7687 32.7639 91.4557 32.7639 163.84C32.7639 225.257 75.0562 276.648 132.072 290.87C131.46 289.1 131.067 287.047 131.067 284.502L131.067 262.099C125.748 262.099 116.835 262.099 114.596 262.099C105.629 262.099 97.655 258.244 93.7884 251.078C89.4959 243.116 88.7531 230.937 78.1145 223.488C74.9579 221.009 77.3609 218.18 80.9981 218.562C87.7155 220.462 93.286 225.072 98.5288 231.909C103.75 238.758 106.207 240.309 115.961 240.309C120.691 240.309 127.769 240.036 134.431 238.987C138.014 229.889 144.207 221.511 151.776 217.557C108.13 213.068 87.3004 191.354 87.3004 161.874C87.3004 149.182 92.7071 136.905 101.893 126.561C98.8784 116.294 95.0882 95.3551 103.051 87.3816C122.69 87.3816 134.562 100.117 137.413 103.558C147.2 100.205 157.948 98.3042 169.242 98.3042C180.557 98.3042 191.349 100.205 201.157 103.58C203.975 100.161 215.859 87.3816 235.542 87.3816C243.537 95.366 239.703 116.392 236.656 126.637C245.787 136.959 251.161 149.203 251.161 161.874C251.161 191.332 230.364 213.035 186.783 217.546C198.776 223.805 207.525 241.39 207.525 254.639L207.525 284.502C207.525 285.638 207.274 286.457 207.143 287.429C258.217 269.527 294.906 221.03 294.906 163.84C294.906 91.4557 236.219 32.7687 163.835 32.7687L163.835 32.7687Z" id="Shape" fill="#20093E" stroke="none" />
    </g>
  </g>
</svg>