<?xml version="1.0" encoding="utf-8"?>
<svg width="400px" height="400px" viewBox="0 0 400 400" version="1.1" xmlns:xlink="http://www.w3.org/1999/xlink" xmlns="http://www.w3.org/2000/svg">
  <defs>
    <path d="M0 0L400 0L400 400L0 400L0 0Z" id="path_1" />
    <path d="M0 0L364.335 0L364.335 364.335L0 364.335L0 0Z" id="path_2" />
    <clipPath id="clip_1">
      <use xlink:href="#path_1" />
    </clipPath>
    <clipPath id="clip_2">
      <use xlink:href="#path_2" />
    </clipPath>
  </defs>
  <g id="Twitter/LinkedIn Profile Photo" clip-path="url(#clip_1)">
    <path d="M0 0L400 0L400 400L0 400L0 0Z" id="TwitterLinkedIn-Profile-Photo" fill="#FFFFFF" fill-opacity="0" fill-rule="evenodd" stroke="none" />
    <g id="Github 2" clip-path="url(#clip_2)" transform="translate(18.66449 18)">
      <path d="M0 0L364.335 0L364.335 364.335L0 364.335L0 0Z" id="Github-2" fill="none" fill-rule="evenodd" stroke="none" />
      <path d="M182.155 36.4317C101.673 36.4317 36.4208 101.684 36.4208 182.166C36.4208 250.454 83.4444 307.594 146.839 323.407C146.159 321.439 145.721 319.156 145.721 316.326L145.721 291.418C139.807 291.418 129.897 291.418 127.408 291.418C117.437 291.418 108.571 287.131 104.272 279.164C99.4994 270.311 98.6736 256.77 86.8448 248.487C83.3351 245.73 86.0069 242.585 90.051 243.01C97.5199 245.123 103.714 250.248 109.543 257.85C115.348 265.465 118.081 267.19 128.926 267.19C134.184 267.19 142.054 266.886 149.462 265.72C153.445 255.604 160.331 246.289 168.747 241.893C120.218 236.901 97.0584 212.758 97.0584 179.98C97.0584 165.868 103.07 152.217 113.283 140.717C109.932 129.301 105.717 106.02 114.571 97.1543C136.407 97.1543 149.608 111.315 152.777 115.14C163.659 111.412 175.609 109.299 188.166 109.299C200.748 109.299 212.747 111.412 223.653 115.165C226.786 111.363 239.999 97.1543 261.884 97.1543C270.773 106.032 266.511 129.41 263.122 140.802C273.275 152.278 279.25 165.892 279.25 179.98C279.25 212.734 256.127 236.865 207.671 241.88C221.005 248.839 230.733 268.392 230.733 283.123L230.733 316.326C230.733 317.589 230.454 318.5 230.308 319.581C287.096 299.676 327.889 245.755 327.889 182.166C327.889 101.684 262.637 36.4317 182.155 36.4317L182.155 36.4317Z" id="Shape" fill="#FFFFFF" stroke="none" />
    </g>
  </g>
</svg>