<?xml version="1.0" encoding="utf-8"?>
<svg width="400px" height="400px" viewBox="0 0 400 400" version="1.1" xmlns:xlink="http://www.w3.org/1999/xlink" xmlns="http://www.w3.org/2000/svg">
  <defs>
    <path d="M0 0L400 0L400 400L0 400L0 0Z" id="path_1" />
    <path d="M0 0L348.335 0L348.335 348.335L0 348.335L0 0Z" id="path_2" />
    <clipPath id="clip_1">
      <use xlink:href="#path_1" />
    </clipPath>
    <clipPath id="clip_2">
      <use xlink:href="#path_2" />
    </clipPath>
  </defs>
  <g id="Twitter/LinkedIn Profile Photo" clip-path="url(#clip_1)">
    <path d="M0 0L400 0L400 400L0 400L0 0Z" id="TwitterLinkedIn-Profile-Photo" fill="#000000" fill-opacity="0" fill-rule="evenodd" stroke="none" />
    <g id="Twitter 2" clip-path="url(#clip_2)" transform="translate(25.999939 25.999939)">
      <path d="M0 0L348.335 0L348.335 348.335L0 348.335L0 0Z" id="Twitter-2" fill="#FFC107" fill-opacity="0" fill-rule="evenodd" stroke="none" />
      <path d="M304.799 93.1702C295.189 97.4223 284.857 100.314 274.014 101.589C285.069 94.956 293.573 84.4533 297.57 71.952C287.238 78.0751 275.757 82.5398 263.553 84.9635C253.773 74.5458 239.826 67.9975 224.434 67.9975C194.839 67.9975 170.814 92.0221 170.814 121.617C170.814 125.827 171.282 129.909 172.217 133.821C127.655 131.609 88.1525 110.264 61.7467 77.8199C57.1119 85.7289 54.4755 94.956 54.4755 104.778C54.4755 123.36 63.9153 139.774 78.3301 149.383C69.5281 149.086 61.279 146.705 54.0503 142.665C54.0503 142.92 54.0503 143.133 54.0503 143.345C54.0503 169.326 72.5046 191.012 97.0395 195.902C92.5322 197.135 87.8123 197.815 82.9224 197.815C79.4781 197.815 76.0764 197.475 72.8448 196.837C79.6482 218.141 99.4632 233.618 122.893 234.086C104.566 248.458 81.4341 257.005 56.3465 257.005C52.0093 257.005 47.7572 256.75 43.5476 256.24C67.2745 271.462 95.4237 280.349 125.699 280.349C224.306 280.349 278.223 198.666 278.223 127.825C278.223 125.529 278.138 123.19 278.053 120.894C288.513 113.325 297.613 103.886 304.799 93.1702L304.799 93.1702Z" id="Shape" fill="#FFFFFF" stroke="none" />
    </g>
  </g>
</svg>