<?xml version="1.0" encoding="utf-8"?>
<svg width="300px" height="300px" viewBox="0 0 300 300" version="1.1" xmlns:xlink="http://www.w3.org/1999/xlink" xmlns="http://www.w3.org/2000/svg">
  <defs>
    <path d="M0 0L300 0L300 300L0 300L0 0Z" id="path_1" />
    <path d="M0 0L301 0L301 301L0 301L0 0Z" id="path_2" />
    <clipPath id="clip_1">
      <use xlink:href="#path_1" />
    </clipPath>
    <clipPath id="clip_2">
      <use xlink:href="#path_2" />
    </clipPath>
  </defs>
  <g id="LinkedIn Company Profile" clip-path="url(#clip_1)">
    <path d="M0 0L300 0L300 300L0 300L0 0Z" id="LinkedIn-Company-Profile" fill="#FFFFFF" fill-opacity="0" fill-rule="evenodd" stroke="none" />
    <g id="Twitter" clip-path="url(#clip_2)" transform="translate(0.33877563 -1.3224487)">
      <path d="M0 0L301 0L301 301L0 301L0 0Z" id="Twitter" fill="#FFFFFF" fill-opacity="0" fill-rule="evenodd" stroke="none" />
      <path d="M263.375 80.5059C255.071 84.1802 246.142 86.6787 236.773 87.781C246.326 82.0491 253.675 72.9735 257.129 62.171C248.2 67.462 238.279 71.3201 227.734 73.4144C219.283 64.4124 207.231 58.7539 193.93 58.7539C168.357 58.7539 147.597 79.5138 147.597 105.087C147.597 108.725 148.001 112.252 148.81 115.632C110.303 113.722 76.1685 95.2766 53.351 67.2416C49.346 74.0758 47.068 82.0491 47.068 90.5368C47.068 106.594 55.2249 120.776 67.6809 129.08C60.075 128.823 52.9469 126.766 46.7005 123.275C46.7005 123.495 46.7005 123.679 46.7005 123.863C46.7005 146.313 62.6471 165.052 83.8479 169.277C79.9531 170.343 75.8746 170.931 71.6491 170.931C68.6729 170.931 65.7335 170.637 62.941 170.086C68.8199 188.494 85.9422 201.869 106.188 202.273C90.3514 214.692 70.3631 222.077 48.6847 222.077C44.9369 222.077 41.2625 221.857 37.625 221.416C58.1277 234.57 82.4516 242.249 108.613 242.249C193.82 242.249 240.411 171.666 240.411 110.452C240.411 108.467 240.337 106.447 240.264 104.462C249.302 97.9221 257.165 89.7652 263.375 80.5059L263.375 80.5059Z" id="Shape" fill="#20093E" stroke="none" />
    </g>
  </g>
</svg>