<?xml version="1.0" encoding="utf-8"?>
<svg width="400px" height="400px" viewBox="0 0 400 400" version="1.1" xmlns:xlink="http://www.w3.org/1999/xlink" xmlns="http://www.w3.org/2000/svg">
  <defs>
    <path d="M0 0L400 0L400 400L0 400L0 0Z" id="path_1" />
    <clipPath id="clip_1">
      <use xlink:href="#path_1" />
    </clipPath>
  </defs>
  <g id="Twitter/LinkedIn Profile Photo" clip-path="url(#clip_1)">
    <path d="M0 0L400 0L400 400L0 400L0 0Z" id="TwitterLinkedIn-Profile-Photo" fill="#FFFFFF" fill-opacity="0" fill-rule="evenodd" stroke="none" />
    <path d="M79.8918 123.356C79.8918 123.356 89.7591 106.004 116.072 78.4954C142.385 50.9867 185.143 15.6208 185.143 15.6208C185.143 15.6208 213.399 10.8636 224.761 24.6179C236.124 38.3723 230.592 70.6383 230.592 70.6383L331.059 171.105C331.059 171.105 361.825 164.624 375.052 176.392C388.279 188.161 383.966 218.179 383.966 218.179L292.022 313.758C292.022 313.758 258.607 329.151 243.919 318.412C229.23 307.673 234.033 269.281 234.033 269.281L207.533 242.772L62.8508 384.95C62.8508 384.95 32.1772 388.796 22.4174 375.662C12.6575 362.529 16.9319 336.249 16.9319 336.249L158.064 195.118L127.64 163.928C127.64 163.928 96.3746 167.45 85.0123 157.882C73.65 148.314 79.8918 123.356 79.8918 123.356Z" id="Vector-2" fill="#2E0B3B" fill-rule="evenodd" stroke="none" />
  </g>
</svg>