<svg width="833" height="646" viewBox="0 0 833 646" fill="none" xmlns="http://www.w3.org/2000/svg">
<g clip-path="url(#clip0_240_140)">
<path d="M526.377 644.357C526.377 644.357 513.624 612.966 551.882 589.423L526.377 644.357Z" fill="#48414C"/>
<path d="M510.693 643.786C510.693 643.786 506.803 621.412 476.693 621.604L510.693 643.786Z" fill="#48414C"/>
<path d="M798.333 644.357C798.333 644.357 781.484 602.885 832.028 571.782L798.333 644.357Z" fill="#48414C"/>
<path d="M777.612 643.602C777.612 643.602 772.473 614.043 732.693 614.297Z" fill="#48414C"/>
<path d="M483.215 179.569L466.576 170.731L467.821 170.069L484.46 178.908L483.215 179.569Z" fill="#CBCBCB"/>
<path d="M468.701 179.569L467.457 178.908L484.095 170.069L485.34 170.731L468.701 179.569Z" fill="#CBCBCB"/>
<path d="M344.861 111.062L344.058 112.629L348.758 115.038L349.561 113.471L344.861 111.062Z" fill="#CBCBCB"/>
<path d="M442.315 162.978L432.959 158.184L433.762 156.617L443.118 161.411L442.315 162.978ZM423.604 153.39L414.248 148.596L415.051 147.029L424.406 151.823L423.604 153.39ZM404.892 143.802L395.537 139.008L396.34 137.441L405.695 142.235L404.892 143.802ZM386.181 134.214L376.825 129.42L377.628 127.853L386.984 132.647L386.181 134.214ZM367.47 124.626L358.114 119.832L358.917 118.265L368.273 123.059L367.47 124.626Z" fill="#CBCBCB"/>
<path d="M452.473 166.205L451.67 167.772L456.37 170.181L457.173 168.614L452.473 166.205Z" fill="#CBCBCB"/>
<path d="M97.5707 228.92C97.5707 229.47 97.5529 230.016 97.5173 230.556C97.3175 233.675 96.5296 236.728 95.1953 239.553C95.1849 239.577 95.1728 239.6 95.1625 239.622C95.1004 239.753 95.0366 239.884 94.9711 240.014C94.5743 240.813 94.134 241.59 93.6524 242.341C91.4522 245.789 88.4366 248.642 84.8719 250.648C81.3073 252.654 77.3034 253.751 73.2141 253.843L73.4607 268.02L76.6757 266.327L77.2497 267.418L73.4848 269.4L73.9451 295.731L73.9502 296.083L71.4644 296.636L71.4695 296.283L72.2522 253.844C68.9607 253.797 65.7114 253.096 62.6929 251.783C59.6744 250.47 56.9469 248.57 54.6687 246.194C54.5118 246.032 54.3567 245.864 54.205 245.699L54.1877 245.68C52.2896 243.61 50.7544 241.234 49.647 238.653C49.6712 238.681 49.697 238.707 49.7212 238.734C47.2184 232.882 47.0487 226.294 49.2467 220.32C51.4448 214.346 55.8442 209.439 61.5435 206.605C61.6297 206.562 61.7176 206.52 61.8038 206.477C67.4414 203.762 73.8935 203.264 79.8811 205.081C85.8688 206.899 90.955 210.9 94.1316 216.291C94.2834 216.546 94.4299 216.807 94.5712 217.069C96.5445 220.707 97.5756 224.781 97.5707 228.92Z" fill="#E5E5E5"/>
<path d="M94.2152 239.636C112.261 239.636 126.889 225.007 126.889 206.962C126.889 188.916 112.261 174.287 94.2152 174.287C76.1698 174.287 61.541 188.916 61.541 206.962C61.541 225.007 76.1698 239.636 94.2152 239.636Z" fill="#E5E5E5"/>
<path opacity="0.2" d="M70.0898 185.138C67.042 192.267 66.6285 200.248 68.9233 207.654C71.218 215.06 76.0715 221.409 82.6163 225.566C89.1611 229.723 96.9708 231.417 104.65 230.346C112.329 229.275 119.377 225.508 124.535 219.719C122.673 224.075 119.886 227.974 116.368 231.146C112.85 234.317 108.684 236.686 104.16 238.088C99.6349 239.491 94.8595 239.892 90.1643 239.265C85.469 238.639 80.9662 236.999 76.9676 234.459C72.9691 231.919 69.5706 228.541 67.0075 224.557C64.4444 220.574 62.7779 216.08 62.1237 211.389C61.4695 206.697 61.8431 201.92 63.2186 197.387C64.5941 192.854 66.9386 188.675 70.0898 185.138Z" fill="black"/>
<path d="M95.9835 297.986L92.6465 297.05L92.6535 296.691L93.6535 242.341L93.7035 239.631L93.7045 239.552L93.8795 230.056L94.1325 216.293V216.291L94.3045 206.962H94.3965L94.5725 217.069L94.8015 230.224L94.9655 239.558V239.627L94.9725 240.012V240.014L95.2895 258.209L95.3225 260.017L95.9775 297.624L95.9835 297.986Z" fill="#3F3D56"/>
<path d="M99.5017 255.991L94.1006 258.834L94.8533 260.264L100.254 257.42L99.5017 255.991Z" fill="#3F3D56"/>
<path d="M517.769 101.216C476.529 98.7782 435.164 99.414 394.018 103.119C374.187 104.911 354.04 106.847 334.574 111.173C318.896 114.658 300.699 120.547 290.93 134.264C288.884 137.027 287.506 140.227 286.902 143.612C286.298 146.998 286.486 150.477 287.45 153.777C289.779 161.597 295.573 168.105 301.744 173.203C315.947 184.937 333.569 191.764 349.31 201.086C378.05 218.105 404.353 241.046 421.236 270.187C428.665 283.01 435.732 300.061 427.459 314.191C419.355 328.033 401.264 332.802 386.51 335.051C368.017 337.87 348.969 337.106 330.399 335.527C310.041 333.629 289.796 330.663 269.748 326.644C230.473 319.102 191.556 309.509 151.735 305.147C131.769 302.798 111.634 302.216 91.5655 303.407C73.4412 304.629 55.1616 307.496 38.1351 314.031C25.0148 319.067 11.0291 326.687 3.94201 339.393C-2.88964 351.642 -0.225078 365.767 7.21374 377.069C16.1642 390.666 30.1211 399.984 44.6317 406.794C61.1533 414.548 78.8247 419.575 96.5187 423.849C105.493 426.017 114.515 427.977 123.538 429.927C125.421 430.333 126.225 427.442 124.336 427.034C106.14 423.102 87.8908 419.157 70.1465 413.465C53.726 408.198 36.9219 401.451 23.475 390.391C12.5964 381.444 2.25313 368.374 2.89523 353.515C3.54252 338.536 16.1106 328.077 28.429 321.639C43.8236 313.594 61.314 309.675 78.4526 307.627C98.0765 305.44 117.867 305.171 137.543 306.823C177.27 309.846 216.109 318.896 255.059 326.789C292.899 334.457 331.92 341.558 370.698 339.591C386.068 338.811 402.537 336.609 416.109 328.851C422.322 325.299 427.925 320.289 431.083 313.77C433.928 307.568 434.828 300.649 433.664 293.926C431.463 279.156 422.69 265.46 413.937 253.695C404.342 240.935 393.212 229.406 380.798 219.367C367.173 208.403 352.483 198.833 336.948 190.802C328.71 186.465 320.355 182.294 312.504 177.27C304.976 172.453 297.55 166.657 292.953 158.838C288.977 152.074 288.248 144.355 292.389 137.496C296.578 130.558 303.794 125.719 310.911 122.183C328.057 113.664 347.991 111.384 366.75 109.047C407.03 104.047 447.623 102.023 488.201 102.991C498.064 103.223 507.92 103.632 517.769 104.216C519.698 104.33 519.691 101.329 517.769 101.216Z" fill="black"/>
<path d="M491.607 5.05212L497.837 0.069777C492.997 -0.464143 491.009 2.17515 490.195 4.26417C486.415 2.69427 482.299 4.75169 482.299 4.75169L494.763 9.27655C494.134 7.59706 493.039 6.13165 491.607 5.05212Z" fill="#3F3D56"/>
<path d="M461.375 20.8254L467.604 15.843C462.765 15.3091 460.777 17.9484 459.963 20.0374C456.182 18.4675 452.066 20.525 452.066 20.525L464.53 25.0498C463.902 23.3703 462.807 21.9049 461.375 20.8254Z" fill="#3F3D56"/>
<path d="M491.607 45.7997L497.837 40.8174C492.997 40.2834 491.009 42.9227 490.195 45.0117C486.415 43.4418 482.299 45.4993 482.299 45.4993L494.763 50.0241C494.134 48.3446 493.039 46.8792 491.607 45.7997Z" fill="#3F3D56"/>
<path d="M398.219 53.1814C408.584 53.1814 416.987 44.7785 416.987 34.413C416.987 24.0474 408.584 15.6445 398.219 15.6445C387.853 15.6445 379.45 24.0474 379.45 34.413C379.45 44.7785 387.853 53.1814 398.219 53.1814Z" fill="#F57F02"/>
<path d="M457.074 92.2474H365C364.885 92.2488 364.77 92.2397 364.656 92.2201L408.204 16.7959C408.469 16.326 408.855 15.9351 409.321 15.6632C409.787 15.3912 410.317 15.2479 410.857 15.2479C411.397 15.2479 411.927 15.3912 412.393 15.6632C412.859 15.9351 413.245 16.326 413.51 16.7959L442.734 67.4096L444.134 69.8312L457.074 92.2474Z" fill="#713996"/>
<path d="M508.335 92.2482H428.701L444.132 69.8339L445.242 68.2186L465.35 39.0087C465.706 38.5618 466.151 38.1948 466.658 37.9314C467.165 37.6681 467.721 37.5144 468.291 37.4804C468.861 37.4463 469.432 37.5327 469.967 37.7338C470.501 37.935 470.987 38.2464 471.394 38.6478C471.498 38.7619 471.595 38.8824 471.683 39.0087L508.335 92.2482Z" fill="#713996"/>
<path d="M376.975 265.235C385.702 269.597 391.015 275.358 391.015 281.677C391.015 295.289 366.384 306.323 336 306.323C322.79 306.323 310.671 304.236 301.188 300.759C311.26 305.794 325.882 308.964 342.162 308.964C372.546 308.964 397.177 297.929 397.177 284.317C397.177 276.623 389.304 269.755 376.975 265.235Z" fill="#F1F1F1"/>
<path d="M396.387 274.585C406.235 279.507 412.23 286.008 412.23 293.138C412.23 308.497 384.437 320.948 350.152 320.948C335.246 320.948 321.571 318.593 310.87 314.67C322.236 320.351 338.735 323.928 357.105 323.928C391.39 323.928 419.183 311.477 419.183 296.117C419.183 287.436 410.299 279.685 396.387 274.585Z" fill="#F1F1F1"/>
<path d="M369.546 269.353C375.694 272.426 379.437 276.485 379.437 280.937C379.437 290.527 362.084 298.301 340.678 298.301C332.338 298.409 324.042 297.083 316.151 294.381C323.248 297.928 333.55 300.162 345.019 300.162C366.425 300.162 383.779 292.387 383.779 282.797C383.779 277.377 378.232 272.538 369.546 269.353Z" fill="#F1F1F1"/>
<path d="M283.155 267.593C283.155 267.593 284.506 287.341 323.237 287.341C361.967 287.341 373.531 267.593 373.531 267.593H283.155Z" fill="#48414C"/>
<path d="M338.129 215.777C332.538 211.53 325.52 209.61 318.545 210.42C324.778 211.923 330.283 215.573 334.093 220.73C337.903 225.887 339.775 232.221 339.381 238.62C338.987 245.02 336.351 251.076 331.937 255.726C327.523 260.376 321.612 263.323 315.241 264.049C321.335 265.52 327.749 264.849 333.405 262.147C339.062 259.445 343.616 254.878 346.301 249.214C348.987 243.55 349.64 237.134 348.152 231.045C346.664 224.955 343.124 219.564 338.129 215.777Z" fill="#48414C"/>
<path d="M325.438 206.856H322.797V269.714H325.438V206.856Z" fill="#3F3D56"/>
<path d="M498.984 160.153L498.969 160.128L498.934 158.593L507.207 146.582L498.944 157.444L498.914 157.768L498.631 145.491L505.777 133.038L498.611 143.335L498.686 117.9L498.685 117.815L498.683 117.898L498.209 137.944L491.696 129.802L498.188 139.671L498.045 150.653L492.053 139.935L498.023 152.267L497.944 158.374L497.725 175.291L497.709 176.555C498.261 176.559 498.807 176.55 499.348 176.527L498.973 160.278L498.984 160.153Z" fill="#CBCBCB"/>
<path d="M459.373 165.434L459.359 165.41L459.323 163.875L467.596 151.863L459.333 162.725L459.304 163.05L459.021 150.773L466.166 138.32L459.001 148.616L459.075 123.181L459.075 123.096L459.073 123.18L458.598 143.226L452.086 135.083L458.577 144.953L458.435 155.934L452.442 145.217L458.413 157.549L458.334 163.655L458.115 180.572L458.099 181.836C458.651 181.841 459.197 181.831 459.738 181.809L459.363 165.56L459.373 165.434Z" fill="#CBCBCB"/>
<path d="M478.739 148.71L478.724 148.685L478.689 147.15L486.962 135.139L478.699 146.001L478.669 146.325L478.386 134.048L485.532 121.595L478.366 131.891L478.441 106.457L478.44 106.372L478.438 106.455L477.964 126.501L471.451 118.359L477.943 128.228L477.8 139.21L471.807 128.492L477.778 140.824L477.699 146.931L477.48 163.848L477.464 165.112C478.016 165.116 478.562 165.107 479.103 165.084L478.728 148.835L478.739 148.71Z" fill="#CBCBCB"/>
<path d="M151.59 441C157.424 441 162.153 436.271 162.153 430.437C162.153 424.603 157.424 419.874 151.59 419.874C145.756 419.874 141.027 424.603 141.027 430.437C141.027 436.271 145.756 441 151.59 441Z" fill="#713996"/>
<path d="M715.399 625.419L705.62 629.052L686.952 593.062L701.385 587.7L715.399 625.419Z" fill="#FFB7B7"/>
<path d="M721.414 633.971L689.883 645.686L689.735 645.287C688.525 642.032 688.659 638.43 690.105 635.274C691.551 632.117 694.192 629.664 697.447 628.454L716.706 621.299L721.414 633.971Z" fill="#2F2E41"/>
<path d="M619.162 635.574L608.73 635.573L603.767 595.335L619.164 595.336L619.162 635.574Z" fill="#FFB7B7"/>
<path d="M620.972 645.686L587.334 645.685V645.259C587.334 641.787 588.714 638.457 591.169 636.002C593.624 633.547 596.954 632.167 600.427 632.167L620.972 632.168L620.972 645.686Z" fill="#2F2E41"/>
<path d="M666.924 356.505L663.52 349.697L634.589 364.163L635.44 370.119L629.909 377.352C629.909 377.352 620.548 382.458 622.25 399.476L623.952 415.644L626.079 436.491L611.188 487.972L603.53 556.046L597.999 610.93L624.803 609.654L649.48 520.307L692.877 616.461L722.659 608.803L681.815 513.5L676.709 473.506C676.709 473.506 680.113 452.233 663.945 437.768L666.498 430.109V420.672L675.007 375.65L666.924 356.505Z" fill="#48414C"/>
<path opacity="0.2" d="M667.719 453.799L648.999 520.171L649.961 520.443L668.682 454.071L667.719 453.799Z" fill="black"/>
<path d="M666.073 436.491H624.378V440.746H666.073V436.491Z" fill="#3F3D56"/>
<path d="M624.378 443.299C625.318 443.299 626.079 441.394 626.079 439.044C626.079 436.694 625.318 434.789 624.378 434.789C623.438 434.789 622.676 436.694 622.676 439.044C622.676 441.394 623.438 443.299 624.378 443.299Z" fill="#3F3D56"/>
<path d="M654.06 345.5C665.052 339.491 669.092 325.71 663.083 314.718C657.075 303.726 643.293 299.687 632.302 305.695C621.31 311.704 617.27 325.485 623.279 336.477C629.287 347.469 643.069 351.508 654.06 345.5Z" fill="#FFB7B7"/>
<path d="M677.889 317.5C688.971 317.5 697.955 308.517 697.955 297.435C697.955 286.353 688.971 277.369 677.889 277.369C666.807 277.369 657.823 286.353 657.823 297.435C657.823 308.517 666.807 317.5 677.889 317.5Z" fill="#2F2E41"/>
<path d="M703.353 295.285C704.144 297.944 704.376 300.738 704.033 303.491C703.69 306.243 702.78 308.895 701.361 311.278C699.942 313.662 698.044 315.725 695.787 317.338C693.53 318.95 690.963 320.078 688.248 320.648C685.534 321.219 682.73 321.221 680.015 320.653C677.3 320.086 674.732 318.961 672.473 317.351C670.214 315.741 668.313 313.68 666.891 311.299C665.469 308.917 664.556 306.266 664.21 303.514C665.648 308.341 668.848 312.451 673.176 315.028C677.503 317.605 682.642 318.46 687.571 317.424C692.5 316.388 696.859 313.536 699.782 309.435C702.706 305.334 703.981 300.283 703.353 295.285Z" fill="#2F2E41"/>
<path d="M624.081 319.3C623.493 324.487 624.631 329.723 627.32 334.197C630.009 338.672 634.098 342.134 638.955 344.048C643.811 345.962 649.163 346.221 654.182 344.785C659.2 343.349 663.605 340.297 666.714 336.104C669.822 331.91 671.461 326.808 671.375 321.589C671.29 316.37 669.486 311.324 666.242 307.234C662.998 303.144 658.496 300.238 653.433 298.967C648.371 297.695 643.03 298.129 638.238 300.201C634.276 297.005 629.363 297.995 625.369 301.368C620.852 305.182 619.512 307.801 616.009 314.073C619.453 314.556 620.637 318.817 624.081 319.3Z" fill="#2F2E41"/>
<path d="M707.455 387.511C707.201 394.233 706.698 407.464 706.698 408.139C706.698 408.851 696.667 429.62 692.334 438.558V438.563C692.026 439.193 691.749 439.764 691.505 440.267C691.17 440.961 690.643 441.544 689.986 441.947C689.33 442.35 688.572 442.557 687.802 442.542L668.864 442.202C667.823 442.185 666.83 441.765 666.09 441.032C665.351 440.299 664.924 439.309 664.898 438.268L662.786 354.953C662.779 354.678 662.827 354.405 662.927 354.149C663.027 353.893 663.178 353.66 663.37 353.463C663.561 353.267 663.791 353.11 664.044 353.003C664.297 352.896 664.569 352.841 664.844 352.841H689.266C690.297 352.841 691.308 353.133 692.182 353.681C693.055 354.229 693.757 355.013 694.206 355.941L705.927 380.191C707.026 382.47 707.551 384.983 707.455 387.511Z" fill="#713996"/>
<path d="M664.568 432.551C659.709 429.606 655.342 425.916 651.629 421.615C643 411.91 637.752 399.668 636.673 386.727C635.711 375.655 637.908 367.424 643.203 362.264C649.935 355.705 659.098 356.658 659.485 356.702L659.895 356.749L666.102 362.002L664.346 364.078L658.791 359.378C657.091 359.293 650.15 359.274 645.079 364.234C640.412 368.799 638.496 376.288 639.383 386.492C640.409 398.813 645.393 410.472 653.591 419.729C657.127 423.819 661.272 427.34 665.881 430.169L664.568 432.551Z" fill="#713996"/>
<path d="M699.809 400.898L666.72 407.694L666.902 408.582L699.991 401.786L699.809 400.898Z" fill="#3F3D56"/>
<path d="M678 352.823L677.094 352.859L679.243 405.51L680.149 405.473L678 352.823Z" fill="#3F3D56"/>
<path d="M707.455 387.511C707.201 394.233 706.698 407.464 706.698 408.139C706.698 408.851 696.667 429.62 692.334 438.558L700.411 391.659C700.724 389.854 701.51 388.165 702.689 386.764C703.869 385.363 705.399 384.301 707.124 383.686C707.395 384.942 707.507 386.227 707.455 387.511Z" fill="#3F3D56"/>
<path d="M657.829 485.8C658.545 484.878 659.049 483.811 659.307 482.673C659.565 481.536 659.571 480.355 659.323 479.216C659.076 478.076 658.581 477.004 657.875 476.076C657.169 475.147 656.267 474.385 655.234 473.843L656.876 455.684L646.084 451.995L644.126 477.672C643.33 479.467 643.22 481.492 643.818 483.363C644.415 485.234 645.678 486.821 647.367 487.822C649.057 488.824 651.055 489.172 652.983 488.799C654.911 488.426 656.635 487.359 657.829 485.8Z" fill="#FFB7B7"/>
<path d="M659.239 468.228L640.116 467.535L640.925 375.312C640.912 372.702 641.718 370.154 643.232 368.028C644.745 365.902 646.888 364.305 649.359 363.464C651.667 362.697 654.161 362.695 656.471 363.457C659.091 364.344 661.341 366.078 662.865 368.385C664.39 370.693 665.104 373.442 664.893 376.2L659.239 468.228Z" fill="#F1F1F2"/>
<path d="M827.001 646H446.001C445.736 646 445.481 645.895 445.294 645.707C445.106 645.52 445.001 645.265 445.001 645C445.001 644.735 445.106 644.48 445.294 644.293C445.481 644.105 445.736 644 446.001 644H827.001C827.266 644 827.521 644.105 827.708 644.293C827.896 644.48 828.001 644.735 828.001 645C828.001 645.265 827.896 645.52 827.708 645.707C827.521 645.895 827.266 646 827.001 646Z" fill="#CBCBCB"/>
</g>
<defs>
<clipPath id="clip0_240_140">
<rect width="832.028" height="646" fill="white"/>
</clipPath>
</defs>
</svg>
