<?xml version="1.0" encoding="utf-8"?>
<svg width="400px" height="400px" viewBox="0 0 400 400" version="1.1" xmlns:xlink="http://www.w3.org/1999/xlink" xmlns="http://www.w3.org/2000/svg">
  <defs>
    <path d="M0 0L400 0L400 400L0 400L0 0Z" id="path_1" />
    <path d="M58.999 14L341.001 14Q341.197 14 341.393 14.0096Q341.59 14.0193 341.785 14.0385Q341.98 14.0578 342.175 14.0866Q342.369 14.1154 342.561 14.1537Q342.754 14.192 342.945 14.2397Q343.135 14.2874 343.323 14.3444Q343.511 14.4014 343.696 14.4676Q343.881 14.5337 344.062 14.6089Q344.243 14.684 344.421 14.768Q344.599 14.8519 344.772 14.9445Q344.945 15.0371 345.113 15.138Q345.282 15.239 345.445 15.3481Q345.608 15.4572 345.766 15.5741Q345.924 15.6911 346.076 15.8157Q346.227 15.9403 346.373 16.0721Q346.518 16.204 346.657 16.3429Q346.796 16.4817 346.928 16.6272Q347.06 16.7727 347.184 16.9245Q347.309 17.0763 347.426 17.234Q347.543 17.3917 347.652 17.555Q347.761 17.7183 347.862 17.8867Q347.963 18.0551 348.055 18.2283Q348.148 18.4015 348.232 18.579Q348.316 18.7565 348.391 18.9379Q348.466 19.1193 348.532 19.3042Q348.599 19.4891 348.656 19.677Q348.713 19.8649 348.76 20.0554Q348.808 20.2459 348.846 20.4385Q348.885 20.6311 348.913 20.8253Q348.942 21.0195 348.961 21.215Q348.981 21.4104 348.99 21.6065Q349 21.8026 349 21.999L349 378.001Q349 378.197 348.99 378.393Q348.981 378.59 348.961 378.785Q348.942 378.98 348.913 379.175Q348.885 379.369 348.846 379.561Q348.808 379.754 348.76 379.945Q348.713 380.135 348.656 380.323Q348.599 380.511 348.532 380.696Q348.466 380.881 348.391 381.062Q348.316 381.243 348.232 381.421Q348.148 381.598 348.055 381.772Q347.963 381.945 347.862 382.113Q347.761 382.282 347.652 382.445Q347.543 382.608 347.426 382.766Q347.309 382.924 347.184 383.076Q347.06 383.227 346.928 383.373Q346.796 383.518 346.657 383.657Q346.518 383.796 346.373 383.928Q346.227 384.06 346.076 384.184Q345.924 384.309 345.766 384.426Q345.608 384.543 345.445 384.652Q345.282 384.761 345.113 384.862Q344.945 384.963 344.772 385.055Q344.599 385.148 344.421 385.232Q344.243 385.316 344.062 385.391Q343.881 385.466 343.696 385.532Q343.511 385.599 343.323 385.656Q343.135 385.713 342.945 385.76Q342.754 385.808 342.561 385.846Q342.369 385.885 342.175 385.913Q341.98 385.942 341.785 385.962Q341.59 385.981 341.393 385.99Q341.197 386 341.001 386L58.999 386Q58.8026 386 58.6065 385.99Q58.4104 385.981 58.215 385.962Q58.0195 385.942 57.8253 385.913Q57.6311 385.885 57.4385 385.846Q57.2459 385.808 57.0554 385.76Q56.8649 385.713 56.677 385.656Q56.4891 385.599 56.3042 385.532Q56.1193 385.466 55.9379 385.391Q55.7565 385.316 55.579 385.232Q55.4015 385.148 55.2283 385.055Q55.0551 384.963 54.8867 384.862Q54.7183 384.761 54.555 384.652Q54.3917 384.543 54.234 384.426Q54.0763 384.309 53.9245 384.184Q53.7727 384.06 53.6272 383.928Q53.4817 383.796 53.3429 383.657Q53.204 383.518 53.0721 383.373Q52.9403 383.227 52.8157 383.076Q52.6911 382.924 52.5741 382.766Q52.4572 382.608 52.3481 382.445Q52.239 382.282 52.138 382.113Q52.0371 381.945 51.9445 381.772Q51.8519 381.598 51.768 381.421Q51.684 381.243 51.6089 381.062Q51.5337 380.881 51.4676 380.696Q51.4014 380.511 51.3444 380.323Q51.2874 380.135 51.2397 379.945Q51.192 379.754 51.1537 379.561Q51.1154 379.369 51.0866 379.175Q51.0578 378.98 51.0385 378.785Q51.0193 378.59 51.0096 378.393Q51 378.197 51 378.001L51 21.999Q51 21.8026 51.0096 21.6065Q51.0193 21.4104 51.0385 21.215Q51.0578 21.0195 51.0866 20.8253Q51.1154 20.6311 51.1537 20.4385Q51.192 20.2459 51.2397 20.0554Q51.2874 19.8649 51.3444 19.677Q51.4014 19.4891 51.4676 19.3042Q51.5337 19.1193 51.6089 18.9379Q51.684 18.7565 51.768 18.579Q51.8519 18.4015 51.9445 18.2283Q52.0371 18.0551 52.138 17.8867Q52.239 17.7183 52.3481 17.555Q52.4572 17.3917 52.5741 17.234Q52.6911 17.0763 52.8157 16.9245Q52.9403 16.7727 53.0721 16.6272Q53.204 16.4817 53.3429 16.3429Q53.4817 16.204 53.6272 16.0721Q53.7727 15.9403 53.9245 15.8157Q54.0763 15.6911 54.234 15.5741Q54.3917 15.4572 54.555 15.3481Q54.7183 15.239 54.8867 15.138Q55.0551 15.0371 55.2283 14.9445Q55.4015 14.8519 55.579 14.768Q55.7565 14.684 55.9379 14.6089Q56.1193 14.5337 56.3042 14.4676Q56.4891 14.4014 56.677 14.3444Q56.8649 14.2874 57.0554 14.2397Q57.2459 14.192 57.4385 14.1537Q57.6311 14.1154 57.8253 14.0866Q58.0195 14.0578 58.215 14.0385Q58.4104 14.0193 58.6065 14.0096Q58.8026 14 58.999 14Z" id="path_2" />
    <clipPath id="clip_1">
      <use xlink:href="#path_1" />
    </clipPath>
    <clipPath id="clip_2">
      <use xlink:href="#path_2" />
    </clipPath>
  </defs>
  <g id="Twitter/LinkedIn Profile Photo" clip-path="url(#clip_1)">
    <path d="M0 0L400 0L400 400L0 400L0 0Z" id="TwitterLinkedIn-Profile-Photo" fill="#FFFFFF" fill-opacity="0" fill-rule="evenodd" stroke="none" />
    <g id="Rectangle-8">
      <g clip-path="url(#clip_2)">
        <use xlink:href="#path_2" fill="none" stroke="#2E0B3B" stroke-width="40" />
      </g>
    </g>
    <path d="M113.417 79.4066L183.261 79.4066L183.261 142.154L113.417 142.154L113.417 79.4066Z" id="Rectangle-9" fill="#2E0B3B" fill-rule="evenodd" stroke="none" />
    <path d="M206.036 79.4066L275.88 79.4066L275.88 142.154L206.036 142.154L206.036 79.4066Z" id="Rectangle-7-Copy" fill="#2E0B3B" fill-rule="evenodd" stroke="none" />
    <path d="M210.063 173.429L279.907 173.429L279.907 236.176L210.063 236.176L210.063 173.429Z" id="Rectangle-7-Copy-2" fill="#2E0B3B" fill-rule="evenodd" stroke="none" />
    <path d="M212.077 267.451L281.921 267.451L281.921 330.198L212.077 330.198L212.077 267.451Z" id="Rectangle-7-Copy-3" fill="#2E0B3B" fill-rule="evenodd" stroke="none" />
    <path d="M113.417 173.429L183.261 173.429L183.261 236.176L113.417 236.176L113.417 173.429Z" id="Rectangle-7-Copy-4" fill="#2E0B3B" fill-rule="evenodd" stroke="none" />
    <path d="M113.458 267.5L183.301 267.5L183.301 330.247L113.458 330.247L113.458 267.5Z" id="Rectangle-7-Copy-5" fill="#2E0B3B" fill-rule="evenodd" stroke="none" />
  </g>
</svg>