<svg width="650" height="654" viewBox="0 0 650 654" fill="none" xmlns="http://www.w3.org/2000/svg">
<g clip-path="url(#clip0_238_94)">
<path d="M60.29 432.317L72.279 438.104L100.308 394.612L82.612 386.071L60.29 432.317Z" fill="#FFB6B6"/>
<path d="M53.8291 444.62L90.6984 462.417L90.9235 461.951C92.7605 458.145 93.0105 453.765 91.6185 449.775C90.2265 445.785 87.3065 442.511 83.5008 440.673L79.2319 432.313L64.1999 431.357L60.9814 429.803L53.8291 444.62Z" fill="#2F2E41"/>
<path d="M149.536 448.529L162.848 448.528L169.182 397.176L149.533 397.177L149.536 448.529Z" fill="#FFB6B6"/>
<path d="M149.067 462.417L190.007 462.416V461.898C190.007 457.672 188.328 453.619 185.34 450.631C182.351 447.642 178.298 445.964 174.072 445.963H174.071L166.593 440.29L152.64 445.964L149.066 445.964L149.067 462.417Z" fill="#2F2E41"/>
<path d="M162.73 210.367L177.986 315.571L179.282 339.218L171.282 413.009L174.529 420.159L165.455 425.755H146.991L146.012 347.807L132.166 282.525L130.024 356.518L127.06 362.235C116.019 387.287 101.145 395.489 90.6296 414.214L72.1649 404.213L72.5521 396.753C68.8426 394.875 78.1214 389.386 79.013 385.325L80.6279 378.054L91.3989 355.743L91.8099 347.885L88.862 294.444L90.2492 222.479L114.469 203.959L162.73 210.367Z" fill="#48414C"/>
<path d="M139.528 61.2195C152.777 61.2195 163.517 50.4793 163.517 37.2306C163.517 23.982 152.777 13.2418 139.528 13.2418C126.279 13.2418 115.539 23.982 115.539 37.2306C115.539 50.4793 126.279 61.2195 139.528 61.2195Z" fill="#FFB6B6"/>
<path d="M142.829 229.782C111.204 229.783 87.4804 217.872 87.1558 217.705L86.8748 217.561L86.9612 217.258C87.8102 214.284 88.6145 209.296 87.1592 208.569C87.0026 208.509 86.8636 208.41 86.7552 208.282C86.6468 208.154 86.5724 208.001 86.539 207.837C86.4556 207.239 87.054 206.693 87.8824 205.936C89.4902 204.468 91.6924 202.457 90.4008 199.229C88.1239 193.537 94.526 164.37 94.94 162.501L92.2055 116.009C91.7073 107.139 94.2784 98.367 99.4865 91.1691C104.695 83.9713 112.222 78.786 120.803 76.4852L120.864 76.469L120.927 76.4732C121.816 76.5232 122.758 73.5035 123.472 71.2939C124.527 68.0279 125.223 66.021 126.411 66.1063C135.61 66.6995 141.74 67.0875 145.825 67.3411C153.569 67.8223 154.926 77.2421 155.093 78.7459C163.429 83.8256 169.948 91.4082 173.72 100.412C177.492 109.416 178.324 119.381 176.098 128.886L172.238 145.484L168.827 153.459L169.951 169.192C175.241 173.592 173.725 182.592 173.424 184.113C178.465 189.328 175.37 195.466 174.619 196.766C175.909 198.342 176.787 200.215 177.174 202.216C177.561 204.216 177.445 206.281 176.835 208.226L181.479 223.316L181.128 223.438C168.809 227.691 155.861 229.836 142.829 229.782Z" fill="#48414C"/>
<path d="M291.448 72.3208C290.613 71.2409 289.551 70.3574 288.337 69.7325C287.123 69.1075 285.787 68.7564 284.422 68.7037C283.058 68.651 281.699 68.8981 280.44 69.4275C279.182 69.957 278.055 70.756 277.138 71.7682L201.285 72.181L179.734 82.5926L176.938 94.5255L211.762 93.0696L278.232 85.4776C280.034 86.9042 282.297 87.6201 284.592 87.4896C286.887 87.3591 289.055 86.3913 290.684 84.7695C292.313 83.1478 293.291 80.9848 293.432 78.6904C293.572 76.396 292.867 74.1297 291.448 72.3208Z" fill="#FFB6B6"/>
<path d="M206.215 97.2685L176.689 111.236L149.315 99.7771L149.288 99.5558C148.772 95.5069 149.483 91.3964 151.328 87.7559C153.173 84.1153 156.069 81.1121 159.639 79.1347C165.352 75.9506 171.579 73.7947 178.038 72.765C196.144 70.0715 199.817 69.037 199.852 69.0267L200.25 68.9113L206.215 97.2685Z" fill="#48414C"/>
<path d="M119.187 52.3092C118.891 52.3104 118.597 52.263 118.316 52.1687C117.214 51.6856 116.292 50.8667 115.683 49.8287C111.432 43.7136 109.379 35.5605 109.582 25.5957C109.668 21.38 110.145 15.9899 113.098 11.6934C115.58 8.08067 120.603 5.21359 125.283 6.65276C125.23 5.71683 125.438 4.78449 125.883 3.95977C126.329 3.13505 126.995 2.45037 127.807 1.98213C129.601 1.06075 131.581 0.560577 133.597 0.519661C138.35 0.0741209 143.264 -0.386442 148.078 0.525658C153.475 1.54935 157.888 4.33115 160.185 8.15766L160.232 8.27787L160.699 10.5454C160.762 10.8502 160.89 11.1378 161.074 11.3884C161.259 11.639 161.496 11.8466 161.768 11.9969C162.041 12.1472 162.342 12.2367 162.653 12.2591C162.963 12.2816 163.275 12.2365 163.566 12.1269C163.884 12.0073 164.228 11.9725 164.563 12.0262C164.899 12.0799 165.214 12.2201 165.479 12.4331C165.744 12.646 165.948 12.9243 166.073 13.2405C166.197 13.5566 166.237 13.8997 166.188 14.2359L166.057 15.1379L167.415 14.8839C167.755 14.8206 168.105 14.8484 168.431 14.9646C168.756 15.0807 169.045 15.281 169.268 15.5451C169.49 15.8092 169.639 16.1276 169.699 16.4679C169.758 16.8082 169.727 17.1583 169.607 17.4824L169.224 18.5196C169.504 18.5214 169.782 18.5807 170.039 18.6939C170.296 18.8071 170.527 18.9718 170.718 19.1778C170.993 19.4731 171.166 19.8484 171.212 20.249C171.258 20.6496 171.175 21.0545 170.975 21.4044C169.458 23.9988 167.305 26.1643 164.72 27.6971C163.307 28.547 161.763 29.1546 160.149 29.4947C149.681 31.7538 138.888 32.0783 128.302 30.4523C128.929 32.54 129.17 34.7245 129.014 36.8987C128.922 38.1317 128.495 39.3161 127.778 40.3236C127.061 41.331 126.082 42.1231 124.948 42.6141C124.462 42.772 123.965 42.8918 123.462 42.9724C122.98 43.0475 122.505 43.1628 122.043 43.3173C121.357 43.5691 120.75 43.9972 120.283 44.5584C119.816 45.1196 119.505 45.7942 119.382 46.5139C119.258 47.2337 119.327 47.9732 119.581 48.658C119.835 49.3427 120.264 49.9484 120.827 50.414L121.878 49.3186L121.536 50.7112C121.465 50.9823 121.337 51.2353 121.162 51.4539C120.986 51.6725 120.767 51.8516 120.517 51.9798C120.108 52.1981 119.651 52.3113 119.187 52.3092Z" fill="#2F2E41"/>
<path d="M279.829 344.677C355.492 344.677 416.829 284.276 416.829 209.768C416.829 135.26 355.492 74.8598 279.829 74.8598C204.166 74.8598 142.829 135.26 142.829 209.768C142.829 284.276 204.166 344.677 279.829 344.677Z" fill="#F57F02"/>
<path d="M393.344 209.768C393.362 225.945 389.81 241.927 382.941 256.574C382.73 257.026 382.512 257.477 382.294 257.929C371.789 279.447 354.722 297.073 333.553 308.265C333.109 308.499 332.665 308.732 332.221 308.958C316.009 317.268 298.047 321.585 279.83 321.551C273.511 321.553 267.202 321.04 260.966 320.016C260.469 319.933 259.972 319.85 259.483 319.76C236.15 315.608 214.695 304.277 198.112 287.346C197.765 286.993 197.419 286.631 197.065 286.27C181.182 269.689 170.845 248.582 167.482 225.869C167.415 225.373 167.339 224.876 167.279 224.379C164.211 201.286 168.513 177.813 179.571 157.309C179.805 156.865 180.053 156.421 180.294 155.984C188.812 140.774 200.735 127.742 215.131 117.91C215.545 117.624 215.959 117.346 216.373 117.067C230.283 107.818 246.057 101.74 262.577 99.2648C263.074 99.1971 263.571 99.1218 264.067 99.054C269.291 98.3394 274.557 97.9823 279.83 97.9852C296.433 97.9581 312.843 101.541 327.923 108.486C328.382 108.697 328.834 108.908 329.285 109.126C343.391 115.856 355.955 125.425 366.192 137.233C366.524 137.61 366.855 137.994 367.171 138.378C379.545 152.982 387.913 170.55 391.455 189.361V189.369C391.553 189.858 391.635 190.347 391.718 190.844C392.803 197.094 393.347 203.425 393.344 209.768Z" fill="white"/>
<path d="M291.037 201.271C292.6 203.207 293.614 205.528 293.973 207.99L348.666 197.674C346.507 186.046 341.357 175.182 333.724 166.149L291.037 201.271Z" fill="#F4F394"/>
<path d="M350.384 198.635C350.317 198.138 350.226 197.649 350.136 197.16V197.152C347.932 185.275 342.676 174.175 334.885 164.942C334.562 164.558 334.231 164.174 333.899 163.806C327.619 156.65 319.979 150.816 311.422 146.643H311.415C310.963 146.425 310.519 146.206 310.06 145.995C297.509 140.232 283.573 138.177 269.893 140.071C269.396 140.132 268.9 140.207 268.403 140.29C258.49 141.858 249.019 145.495 240.604 150.964C240.182 151.235 239.761 151.513 239.347 151.799C230.106 158.063 222.469 166.413 217.05 176.173C216.809 176.61 216.569 177.054 216.328 177.506C209.56 190.387 207.016 205.071 209.056 219.479C209.116 219.983 209.192 220.48 209.282 220.969C211.561 234.848 217.987 247.712 227.717 257.869C228.055 258.23 228.402 258.591 228.763 258.945C239.005 269.268 252.145 276.231 266.438 278.908C266.935 279.006 267.432 279.089 267.928 279.172C283.16 281.7 298.801 279.3 312.574 272.322C313.018 272.096 313.455 271.862 313.899 271.622H313.906C326.927 264.655 337.462 253.816 344.054 240.601C344.28 240.149 344.498 239.698 344.709 239.246C350.657 226.592 352.635 212.435 350.384 198.635ZM343.339 238.621C343.128 239.08 342.91 239.532 342.684 239.976C336.225 252.889 325.921 263.482 313.191 270.297C312.747 270.53 312.303 270.763 311.859 270.989C298.387 277.819 283.084 280.164 268.185 277.681C267.688 277.606 267.183 277.523 266.694 277.425C252.727 274.805 239.885 268.004 229.87 257.921C229.508 257.568 229.162 257.206 228.816 256.845C219.309 246.916 213.02 234.35 210.772 220.788C210.69 220.299 210.614 219.802 210.547 219.306C208.552 205.209 211.038 190.842 217.653 178.236C217.878 177.791 218.119 177.347 218.368 176.903C223.68 167.34 231.169 159.16 240.227 153.026C240.641 152.74 241.055 152.462 241.477 152.198C249.695 146.867 258.939 143.318 268.614 141.78C269.103 141.697 269.6 141.622 270.104 141.562C283.492 139.708 297.131 141.721 309.412 147.365C309.872 147.569 310.323 147.787 310.767 148.005C319.13 152.079 326.599 157.774 332.74 164.761C333.071 165.138 333.403 165.522 333.719 165.906C341.351 174.939 346.501 185.803 348.661 197.431C348.751 197.92 348.834 198.409 348.909 198.914C351.095 212.408 349.154 226.249 343.339 238.621Z" fill="#CCCCCC"/>
<path d="M274.598 198.537L273.371 199.41L240.227 153.026L239.347 151.799L215.131 117.91C215.545 117.624 215.959 117.346 216.373 117.067L240.604 150.964L241.477 152.198L274.598 198.537Z" fill="#CCCCCC"/>
<path d="M268.674 204.537L267.944 205.861L217.653 178.236L216.328 177.505L179.571 157.309C179.805 156.865 180.053 156.421 180.294 155.984L217.051 176.173L218.368 176.903L268.674 204.537Z" fill="#CCCCCC"/>
<path d="M268.034 214.074L210.772 220.788L209.282 220.969L167.482 225.869C167.414 225.373 167.339 224.876 167.278 224.379L209.056 219.479L210.546 219.306L267.86 212.583L268.034 214.074Z" fill="#CCCCCC"/>
<path d="M271.729 219.132L229.869 257.921L228.763 258.945L198.111 287.346C197.764 286.993 197.418 286.631 197.064 286.27L227.716 257.869L228.815 256.845L270.706 218.026L271.729 219.132Z" fill="#CCCCCC"/>
<path d="M329.285 109.126L311.422 146.643H311.415L310.767 148.005L286.348 199.297L284.993 198.65L309.412 147.365L310.06 145.995L327.922 108.486C328.382 108.697 328.833 108.908 329.285 109.126Z" fill="#CCCCCC"/>
<path d="M367.171 138.378L334.885 164.942L333.719 165.906L289.585 202.218L288.629 201.059L332.74 164.761L333.899 163.805L366.192 137.233C366.523 137.61 366.854 137.994 367.171 138.378Z" fill="#CCCCCC"/>
<path d="M391.718 190.844L350.385 198.635L348.909 198.914L292.348 209.58L292.069 208.105L348.661 197.431L350.136 197.16V197.152L391.455 189.369C391.552 189.858 391.635 190.347 391.718 190.844Z" fill="#CCCCCC"/>
<path d="M382.941 256.574C382.73 257.026 382.512 257.477 382.294 257.929L344.054 240.601L342.684 239.976L291.038 216.573L291.663 215.203L343.339 238.621L344.709 239.246L382.941 256.574Z" fill="#CCCCCC"/>
<path d="M333.553 308.265C333.109 308.499 332.665 308.732 332.221 308.958L312.574 272.322L311.859 270.989L285.009 220.916L286.334 220.209L313.192 270.297L313.899 271.621H313.907L333.553 308.265Z" fill="#CCCCCC"/>
<path d="M277.646 222.128L268.184 277.681L267.928 279.172L260.965 320.016C260.469 319.933 259.972 319.85 259.482 319.76L266.438 278.908L266.694 277.425L276.156 221.872L277.646 222.128Z" fill="#CCCCCC"/>
<path d="M278.075 197.679L276.585 197.89L268.613 141.78L268.402 140.29L262.576 99.2649C263.073 99.1972 263.57 99.1219 264.067 99.0541L269.893 140.071L270.104 141.562L278.075 197.679Z" fill="#CCCCCC"/>
<path d="M279.83 223.852C287.728 223.852 294.132 217.546 294.132 209.768C294.132 201.99 287.728 195.684 279.83 195.684C271.931 195.684 265.527 201.99 265.527 209.768C265.527 217.546 271.931 223.852 279.83 223.852Z" fill="#48414C"/>
<path d="M574.04 603.485L563.335 612.448L523.665 575.422L539.465 562.192L574.04 603.485Z" fill="#A0616A"/>
<path d="M583.769 614.336L550.849 641.901L550.5 641.485C547.655 638.087 546.276 633.697 546.667 629.283C547.057 624.868 549.186 620.789 552.584 617.943L552.585 617.942L554.778 608.345L569.817 603.513L572.691 601.106L583.769 614.336Z" fill="#2F2E41"/>
<path d="M478.393 637.666L464.432 637.665L457.789 583.809L478.397 583.81L478.393 637.666Z" fill="#A0616A"/>
<path d="M478.886 652.232L435.949 652.23V651.687C435.95 647.255 437.71 643.004 440.844 639.87C443.979 636.736 448.229 634.975 452.661 634.975L460.505 629.025L475.138 634.976L478.887 634.976L478.886 652.232Z" fill="#2F2E41"/>
<path d="M513.316 379.944C516.689 384.16 515.003 398.494 515.003 398.494L515.83 487.768C530.164 499.573 541.142 548.586 541.142 548.586L554.83 573.768C553.143 578.828 542.203 598.611 538.83 597.768C537.265 597.377 517.785 579.412 504.83 552.768C489.865 521.991 481.274 481.972 481.274 481.972C481.274 481.972 482.961 596.649 482.961 601.709C482.961 606.768 460.194 604.238 455.135 604.238C450.075 604.238 424.033 397.651 424.033 397.651V385.846L428.249 379.944C428.249 379.944 509.943 375.728 513.316 379.944Z" fill="#2F2E41"/>
<path d="M332.055 189.333L321.829 194.105L333.225 191.719C333.225 191.719 341.598 192.06 341.598 188.651L355.232 181.153C355.232 181.153 366.821 187.288 370.229 183.879C373.638 180.471 367.503 173.654 367.503 173.654C367.503 173.654 371.609 171.389 371.26 170.476C370.911 169.564 365.457 170.927 365.457 170.927C365.457 170.927 352.505 163.429 353.187 176.381L339.553 185.42C339.553 185.42 332.736 185.243 332.055 189.333Z" fill="#3F3D56"/>
<path d="M518.001 409.136C500.107 418.014 478.813 420.7 458.757 418.342C441.466 416.307 437.87 396.988 421.821 390.133C426.893 375.562 426.954 356.218 426.097 350.79C424.631 341.521 424.358 276.915 429.729 270.187C436.773 261.36 447.526 256.645 447.037 245.363L448.544 246.91C446.641 241.901 450.327 236.168 455.18 233.903C460.033 231.637 465.64 231.925 470.987 232.258C475.49 232.54 479.992 232.822 484.495 233.103C483.906 234.941 483.763 236.893 484.079 238.797C484.395 240.701 485.16 242.503 486.312 244.052C494.293 241.849 502.711 247.703 506.277 255.167C509.842 262.637 509.756 271.256 509.594 279.531C509.41 289.105 516.506 356.343 507.921 360.598C512.349 361.714 518.608 385.327 514.83 382.768C516.578 383.993 516.156 395.427 518.001 409.136Z" fill="#713996"/>
<path d="M344.059 178.205C345.988 177.638 348.019 177.501 350.007 177.803C351.995 178.106 353.893 178.841 355.567 179.956C357.24 181.071 358.649 182.54 359.694 184.258C360.738 185.977 361.393 187.903 361.613 189.903L437.539 256.66L423.829 265.768L348.47 205.319C345.087 205.465 341.768 204.365 339.142 202.228C336.516 200.09 334.765 197.064 334.222 193.722C333.678 190.379 334.379 186.954 336.192 184.094C338.005 181.235 340.804 179.139 344.059 178.205Z" fill="#A0616A"/>
<path d="M425.823 235.125C424.161 235.22 384.922 206.589 383.918 207.916L381.281 222.218L374.028 231.809L389.708 248.43L394.187 252.105L397.067 255.15C396.06 256.497 402.747 263.718 403.109 265.366C403.285 266.173 403.631 266.932 404.125 267.594C404.62 268.255 405.25 268.802 405.974 269.198L431.489 283.042C434.89 285.567 439.154 286.641 443.346 286.027C447.538 285.414 451.315 283.163 453.85 279.768C456.385 276.374 457.47 272.112 456.867 267.919C456.265 263.725 454.024 259.942 450.637 257.398L446.873 253.592L441.109 247.75L430.321 236.825C429.739 236.233 429.035 235.774 428.259 235.48C427.482 235.187 426.651 235.066 425.823 235.125Z" fill="#713996"/>
<path d="M468.153 224.697C483.438 224.697 495.83 212.306 495.83 197.02C495.83 181.735 483.438 169.343 468.153 169.343C452.867 169.343 440.476 181.735 440.476 197.02C440.476 212.306 452.867 224.697 468.153 224.697Z" fill="#A0616A"/>
<path d="M501.169 188.255C499.63 182.147 493.889 176.819 487.621 177.437C488.395 172.732 485.263 167.994 481.041 165.776C476.82 163.559 471.777 163.464 467.071 164.236C464.338 164.732 461.632 165.364 458.963 166.13C456.698 166.74 446.079 163.105 443.83 163.768C441.906 164.336 437.276 171.228 435.816 172.603C434.356 173.978 433.582 176.292 434.558 178.044C435.521 179.775 437.725 180.338 439.698 180.5C441.672 180.662 443.793 180.634 445.431 181.746C447.537 183.176 448.133 186.027 448.047 188.571C447.962 191.115 447.379 193.68 447.854 196.181C448.329 198.681 450.352 201.179 452.891 201.007C454.793 199.003 458.266 199.132 460.446 200.827C461.489 201.739 462.322 202.865 462.889 204.129C463.456 205.392 463.742 206.764 463.73 208.148C463.685 210.914 463.255 213.661 462.453 216.308C461.996 218.136 461.652 220.351 463.005 221.662C463.803 222.297 464.762 222.698 465.775 222.818C469.771 223.667 484.767 222.516 488.763 223.364L488.454 222.754C491.348 217.16 495.19 212.095 498.035 206.476C500.88 200.857 502.708 194.362 501.169 188.255Z" fill="#2F2E41"/>
<path d="M543.652 416.84C541.696 416.372 539.867 415.48 538.293 414.228C536.719 412.976 535.438 411.395 534.542 409.594C533.645 407.794 533.154 405.819 533.103 403.809C533.053 401.798 533.443 399.801 534.248 397.958L501.617 302.268L518.041 301.191L553.32 391.127C556.327 392.684 558.658 395.29 559.872 398.451C561.086 401.612 561.098 405.108 559.906 408.278C558.715 411.447 556.402 414.069 553.406 415.647C550.41 417.225 546.94 417.65 543.652 416.84Z" fill="#A0616A"/>
<path d="M494.061 314.777C495.55 315.522 515.335 359.884 516.866 359.232L526.271 348.14L537.336 343.431L532.008 321.211L529.951 315.795L528.969 311.72C530.513 311.053 528.307 301.461 528.813 299.852C529.062 299.065 529.14 298.234 529.04 297.414C528.94 296.595 528.666 295.806 528.235 295.102L512.995 270.397C511.302 266.513 508.137 263.459 504.196 261.905C500.255 260.351 495.858 260.423 491.97 262.106C488.082 263.789 485.02 266.945 483.455 270.883C481.891 274.82 481.951 279.217 483.624 283.109L484.994 288.284L487.086 296.22L491.006 311.065C491.216 311.868 491.598 312.616 492.125 313.257C492.653 313.898 493.313 314.417 494.061 314.777Z" fill="#713996"/>
<path d="M620.32 636.396L612.61 624.006L611.07 631.086C610.8 632.326 610.53 633.586 610.28 634.836C608.09 632.966 605.76 631.236 603.48 629.576C596.48 624.496 589.484 619.41 582.49 614.316L584.68 627.016C586.03 634.836 587.44 642.816 590.78 649.966C591.15 650.776 591.55 651.576 591.98 652.356H624.52C624.782 651.632 624.963 650.881 625.06 650.116C625.069 650.067 625.072 650.017 625.07 649.966C625.581 645.116 622.9 640.546 620.32 636.396Z" fill="#F0F0F0"/>
<path d="M647.862 653.574L372.112 653.881C371.796 653.881 371.493 653.756 371.27 653.533C371.046 653.309 370.921 653.006 370.921 652.691C370.921 652.375 371.046 652.072 371.27 651.849C371.493 651.625 371.796 651.5 372.112 651.5L647.862 651.193C648.018 651.192 648.173 651.223 648.318 651.282C648.463 651.342 648.595 651.43 648.706 651.54C648.817 651.651 648.905 651.782 648.965 651.927C649.025 652.072 649.056 652.227 649.056 652.383C649.056 652.54 649.025 652.695 648.965 652.84C648.905 652.984 648.817 653.116 648.706 653.226C648.595 653.337 648.463 653.425 648.318 653.484C648.173 653.544 648.018 653.574 647.862 653.574Z" fill="#CACACA"/>
<path d="M249.399 445.924L241.689 433.534L240.149 440.614C239.879 441.854 239.609 443.114 239.359 444.364C237.169 442.494 234.839 440.764 232.56 439.104C225.56 434.024 218.563 428.937 211.569 423.844L213.759 436.544C215.109 444.364 216.52 452.344 219.859 459.494C220.229 460.304 220.629 461.104 221.06 461.884H253.6C253.861 461.159 254.042 460.408 254.14 459.644C254.148 459.594 254.151 459.544 254.149 459.494C254.66 454.644 251.979 450.074 249.399 445.924Z" fill="#F0F0F0"/>
<path d="M276.941 463.102L1.19113 463.409C0.87594 463.408 0.573992 463.282 0.35144 463.059C0.128889 462.836 0.00390625 462.533 0.00390625 462.218C0.00390625 461.903 0.128889 461.601 0.35144 461.378C0.573992 461.154 0.87594 461.029 1.19113 461.028L276.941 460.72C277.098 460.72 277.253 460.75 277.398 460.81C277.543 460.87 277.674 460.957 277.785 461.068C277.896 461.178 277.984 461.31 278.044 461.454C278.104 461.599 278.135 461.754 278.135 461.911C278.135 462.068 278.104 462.223 278.044 462.367C277.984 462.512 277.896 462.643 277.785 462.754C277.674 462.865 277.543 462.952 277.398 463.012C277.253 463.072 277.098 463.102 276.941 463.102Z" fill="#CACACA"/>
<path d="M149.405 233.203C148.107 232.781 146.917 232.08 145.919 231.148C144.921 230.216 144.139 229.077 143.629 227.811C143.119 226.544 142.892 225.181 142.966 223.818C143.039 222.454 143.411 221.124 144.054 219.92L118.836 148.38L121.361 124.579L131.65 117.919L142.035 151.19L157.328 216.321C159.279 217.536 160.717 219.424 161.369 221.629C162.021 223.833 161.842 226.2 160.865 228.281C159.889 230.362 158.183 232.012 156.071 232.919C153.958 233.827 151.587 233.927 149.405 233.203Z" fill="#FFB6B6"/>
<path d="M105.247 99.545L129.098 90.313L142.946 136.474L110.982 146.603L105.247 99.545Z" fill="#48414C"/>
</g>
<defs>
<clipPath id="clip0_238_94">
<rect width="649.053" height="653.881" fill="white"/>
</clipPath>
</defs>
</svg>
