<svg width="1037" height="759" viewBox="0 0 1037 759" fill="none" xmlns="http://www.w3.org/2000/svg">
<mask id="mask0_251_2" style="mask-type:luminance" maskUnits="userSpaceOnUse" x="0" y="0" width="1037" height="759">
<path d="M1036.61 0H0V758.001H1036.61V0Z" fill="white"/>
</mask>
<g mask="url(#mask0_251_2)">
<path d="M578.607 746C784.609 746 951.607 579.002 951.607 373C951.607 166.998 784.609 0 578.607 0C372.604 0 205.605 166.998 205.605 373C205.605 579.002 372.604 746 578.607 746Z" fill="#F1F1F2"/>
<path d="M692.607 233.001C746.179 233.001 789.607 189.573 789.607 136.001C789.607 82.4296 746.179 39.0012 692.607 39.0012C639.036 39.0012 595.607 82.4296 595.607 136.001C595.607 189.573 639.036 233.001 692.607 233.001Z" fill="#F57F02"/>
<path d="M285.965 72.4836L288.617 127.76C299.607 142.419 311.464 159.194 323.166 177.476L324.837 93.1463L325.759 93.7355C312.223 84.0658 298.463 76.6675 285.043 71.9712L285.965 72.4836Z" fill="#703594"/>
<path d="M286.683 125.192L284.115 71.6472C269.044 66.5072 254.42 64.8019 241.053 67.1858C240.358 67.3098 239.674 67.4527 238.992 67.5975C242.389 71.2412 262.181 92.7607 286.683 125.192Z" fill="#703594"/>
<path d="M408.377 191.139L409.267 191.988C405.614 185.118 401.742 178.438 397.651 171.949L372.726 270.022L372.305 269.65C374.107 273.952 375.82 278.225 377.446 282.469L408.377 191.139Z" fill="#703594"/>
<path d="M370.406 135.383L371.324 136.118C358.146 120.504 343.166 106.507 326.696 94.417L324.992 180.354C335.882 197.539 345.632 214.467 354.242 231.136L370.406 135.383Z" fill="#703594"/>
<path d="M189.602 162.213C191.002 176.698 193.862 191.004 198.138 204.914L346.77 220.244C339.011 205.936 331.001 192.512 323.225 180.277L189.979 163.381L189.602 162.213Z" fill="#703594"/>
<path d="M203.547 220.954L203.146 219.788L353.575 233.159C351.758 229.604 349.921 226.096 348.063 222.636L198.882 207.249L198.49 206.081C199.994 210.984 201.679 215.941 203.547 220.954Z" fill="#703594"/>
<path d="M395.956 169.905L396.86 170.702C389.402 158.972 381.161 147.759 372.193 137.139L355.811 234.187C361.489 245.335 366.631 256.326 371.239 267.16L395.956 169.905Z" fill="#703594"/>
<path d="M392.773 332.019C398.752 357.889 401.017 382.35 399.522 405.132C407.934 387.208 439.925 312.954 427.967 243.752L392.773 332.019Z" fill="#703594"/>
<path d="M231.143 273.257C239.102 283.979 247.771 294.155 257.092 303.717L256.729 302.421L390.54 329.949C387.059 315.503 382.714 301.279 377.53 287.353L231.143 273.257Z" fill="#703594"/>
<path d="M285.528 126.095C259.009 91.0133 238.085 68.8402 237.784 68.5228L238.129 67.7837C218.006 72.3523 203.797 86.0437 195.979 105.861L285.528 126.095Z" fill="#703594"/>
<path d="M378.684 285.761C379.178 287.081 379.68 288.403 380.157 289.717C384.753 302.307 388.66 315.137 391.86 328.152L426.72 240.723L427.571 241.577C425.364 229.411 421.625 217.573 416.442 206.348C414.386 201.946 412.233 197.611 409.984 193.342L378.684 285.761Z" fill="#703594"/>
<path d="M321.669 177.839C310.087 159.772 298.365 143.199 287.5 128.713L195.897 108.014L195.586 106.858C189.868 121.917 187.777 140.418 189.509 161.081L321.669 177.839Z" fill="#703594"/>
<path d="M391.08 332.246L258.248 304.919C314.12 362.274 392.288 406.26 397.277 409.041C399.605 383.771 396.965 357.815 391.08 332.246Z" fill="#703594"/>
<path d="M376.587 284.999L376.617 284.911C370.23 268.073 362.941 251.591 354.781 235.537L203.982 222.132C206.543 228.912 209.436 235.764 212.663 242.689C217.363 252.555 222.953 261.972 229.364 270.822L376.587 284.999Z" fill="#703594"/>
<path d="M568.411 258.67L535.198 302.935C534.313 321.235 532.746 341.718 530.098 363.262L585.171 299.378L585.506 300.42C581.248 284.339 575.369 269.864 568.028 257.688L568.411 258.67Z" fill="#703594"/>
<path d="M535.348 299.724L567.522 256.847C559.192 243.275 549.017 232.635 537.201 225.945C536.587 225.597 535.969 225.271 535.351 224.948C535.643 229.92 537.162 259.118 535.348 299.724Z" fill="#703594"/>
<path d="M587.013 428.134L587.156 429.355C588.725 421.734 590.002 414.12 590.99 406.513L509.241 466.15L509.154 465.595C507.798 470.058 506.391 474.442 504.938 478.747L587.013 428.134Z" fill="#703594"/>
<path d="M593.329 360.973L593.567 362.125C593.376 341.694 590.767 321.359 585.792 301.543L529.669 366.644C527.095 386.826 523.807 406.081 519.807 424.411L593.329 360.973Z" fill="#703594"/>
<path d="M436.965 266.318C428.805 278.367 421.883 291.21 416.305 304.651L521.001 411.258C524.151 395.288 526.544 379.841 528.359 365.458L436.511 267.459L436.965 266.318Z" fill="#703594"/>
<path d="M410.236 320.454L410.672 319.3L518.002 425.544C518.87 421.647 519.692 417.774 520.468 413.924L415.385 306.923L415.828 305.774C413.859 310.509 411.995 315.402 410.236 320.454Z" fill="#703594"/>
<path d="M590.989 403.858L591.177 405.049C592.915 391.258 593.719 377.365 593.586 363.466L519.07 427.762C516.333 439.969 513.283 451.715 509.922 462.998L590.989 403.858Z" fill="#703594"/>
<path d="M485.14 526.687C473.244 550.426 459.387 570.71 443.705 587.302C461.616 578.863 533.616 542.078 568.543 481.152L485.14 526.687Z" fill="#703594"/>
<path d="M398.131 378.338C397.423 391.672 397.61 405.039 398.689 418.349L399.236 417.119L484.738 523.668C491.271 510.321 496.997 496.595 501.886 482.563L398.131 378.338Z" fill="#703594"/>
<path d="M533.88 299.683C535.831 255.75 533.858 225.327 533.829 224.89L534.566 224.541C516.153 215.225 496.477 216.707 477.816 226.984L533.88 299.683Z" fill="#703594"/>
<path d="M503.789 482.072C503.328 483.404 502.872 484.743 502.401 486.059C497.911 498.687 492.736 511.06 486.9 523.125L569.512 478.022L569.624 479.223C575.683 468.445 580.353 456.943 583.522 444.992C584.745 440.29 585.852 435.578 586.843 430.856L503.789 482.072Z" fill="#703594"/>
<path d="M528.712 362.587C531.314 341.285 532.856 321.044 533.728 302.956L476.378 228.589L476.877 227.5C462.867 235.452 449.457 248.367 437.611 265.386L528.712 362.587Z" fill="#703594"/>
<path d="M483.69 525.782L398.814 420.013C405.265 499.823 437.413 583.558 439.483 588.881C457.393 570.904 471.915 549.228 483.69 525.782Z" fill="#703594"/>
<path d="M502.662 480.149L502.741 480.1C508.562 463.058 513.46 445.715 517.415 428.146L409.821 321.64C407.469 328.495 405.327 335.618 403.395 343.009C400.722 353.605 399.022 364.423 398.314 375.328L502.662 480.149Z" fill="#703594"/>
<path d="M237.238 317.768L256.846 369.518C271.829 380.062 288.291 392.35 305.071 406.12L280.594 325.404L281.653 325.679C265.79 320.667 250.417 317.884 236.203 317.566L237.238 317.768Z" fill="#703594"/>
<path d="M254.214 367.673L235.222 317.544C219.3 317.314 204.865 320.213 192.89 326.612C192.267 326.945 191.661 327.292 191.057 327.64C195.413 330.056 220.888 344.404 254.214 367.673Z" fill="#703594"/>
<path d="M390.331 392.775L391.44 393.308C385.843 387.903 380.096 382.748 374.199 377.841L380.809 478.815L380.293 478.592C383.337 482.127 386.287 485.661 389.145 489.194L390.331 392.775Z" fill="#703594"/>
<path d="M336.988 351.486L338.088 351.901C320.73 341.126 302.156 332.444 282.756 326.037L307.699 408.292C323.367 421.27 337.872 434.355 351.212 447.547L336.988 351.486Z" fill="#703594"/>
<path d="M173.33 432.888C179.139 446.231 186.281 458.953 194.648 470.859L340.74 439.498C328.938 428.288 317.171 417.997 305.994 408.765L174.051 433.883L173.33 432.888Z" fill="#703594"/>
<path d="M204.75 484.443L204.009 483.457L351.204 449.677C348.377 446.858 345.545 444.09 342.709 441.373L196.078 472.851L195.344 471.861C198.289 476.059 201.425 480.253 204.75 484.443Z" fill="#703594"/>
<path d="M371.957 376.42L373.064 376.899C362.345 368.049 351.042 359.932 339.23 352.604L353.647 449.963C362.493 458.81 370.781 467.673 378.512 476.553L371.957 376.42Z" fill="#703594"/>
<path d="M419.041 531.579C432.723 554.335 442.438 576.898 448.058 599.026C450.518 579.38 457.991 498.874 425.228 436.757L419.041 531.579Z" fill="#703594"/>
<path d="M247.16 525.655C258.044 533.391 269.434 540.389 281.254 546.603L280.508 545.482L416.275 530.302C408.499 517.639 399.971 505.455 390.736 493.813L247.16 525.655Z" fill="#703594"/>
<path d="M253.396 368.889C217.332 343.722 190.579 329.102 190.195 328.893L190.294 328.084C172.568 338.649 163.288 356.061 161.979 377.325L253.396 368.889Z" fill="#703594"/>
<path d="M391.342 491.942C392.22 493.045 393.106 494.147 393.966 495.249C402.228 505.802 409.91 516.797 416.976 528.184L423.104 434.261L424.178 434.81C418.319 423.923 411.103 413.821 402.705 404.747C399.389 401.196 396.001 397.739 392.543 394.374L391.342 491.942Z" fill="#703594"/>
<path d="M303.76 406.928C287.161 393.326 270.889 381.188 256.078 370.769L162.563 379.398L161.911 378.395C161.127 394.484 164.857 412.725 172.891 431.841L303.76 406.928Z" fill="#703594"/>
<path d="M417.5 532.319L282.727 547.388C353.59 584.664 441.527 602.335 447.131 603.437C441.534 578.685 431 554.816 417.5 532.319Z" fill="#703594"/>
<path d="M389.111 491.865L389.113 491.772C377.834 477.733 365.807 464.311 353.085 451.565L205.527 485.429C210.058 491.085 214.928 496.707 220.137 502.296C227.656 510.226 235.883 517.453 244.715 523.888L389.111 491.865Z" fill="#703594"/>
<path d="M1036.61 634.001C1036.61 678.736 806.484 758.001 522.609 758.001C238.735 758.001 8.60938 678.736 8.60938 634.001C8.60938 589.266 238.735 596.001 522.609 596.001C806.484 596.001 1036.61 589.266 1036.61 634.001Z" fill="#3F3D56"/>
<path opacity="0.1" d="M1036.61 634.001C1036.61 678.736 806.484 758.001 522.609 758.001C238.735 758.001 8.60938 678.736 8.60938 634.001C8.60938 589.266 238.735 596.001 522.609 596.001C806.484 596.001 1036.61 589.266 1036.61 634.001Z" fill="#48414C"/>
<path d="M522.609 715.001C806.484 715.001 1036.61 678.736 1036.61 634.001C1036.61 589.266 806.484 553.001 522.609 553.001C238.735 553.001 8.60938 589.266 8.60938 634.001C8.60938 678.736 238.735 715.001 522.609 715.001Z" fill="#48414C"/>
<path opacity="0.1" d="M611.72 549.339C611.72 598.076 543.786 583.001 460.608 583.001C377.429 583.001 310.504 598.076 310.504 549.339C310.504 500.601 378.429 490.001 461.608 490.001C544.786 490.001 611.72 500.601 611.72 549.339Z" fill="black"/>
<path d="M611.72 537.339C611.72 586.076 543.786 571.001 460.608 571.001C377.429 571.001 310.504 586.076 310.504 537.339C310.504 488.601 378.429 478.001 461.608 478.001C544.786 478.001 611.72 488.601 611.72 537.339Z" fill="#3F3D56"/>
<path d="M344.137 403.233C345.967 401.931 347.986 400.918 350.124 400.231C363.679 395.187 377.881 392.096 392.306 391.048C404.849 390.159 418.443 391.215 428.239 399.098C429.763 400.216 431.01 401.669 431.884 403.345C433.116 406.004 432.743 409.096 432.344 412C432.255 413.126 431.971 414.229 431.505 415.258C430.186 417.768 426.941 418.647 424.122 418.346C421.303 418.045 418.657 416.853 415.877 416.3C414.156 416 412.415 415.822 410.669 415.769L393.229 414.825C382.385 414.238 371.397 413.661 360.76 415.849C357.485 416.438 354.321 417.528 351.378 419.082C348.949 420.446 347.313 422.404 345.058 419.884C341.097 415.457 338.905 407.322 344.137 403.233Z" fill="#2F2E41"/>
<path d="M371.164 410.945C371.164 410.945 394.621 400.43 403.518 412.563C412.416 424.696 398.665 419.843 398.665 419.843L383.297 424.696L366.311 421.46L371.164 410.945Z" fill="#F2F2F2"/>
<path d="M372.377 403.261C372.377 403.261 375.612 418.629 373.186 422.674C370.759 426.718 386.937 432.38 386.937 432.38L402.305 425.909C402.305 425.909 398.261 400.834 402.305 395.981L372.377 403.261Z" fill="#FFB9B9"/>
<path opacity="0.1" d="M372.377 403.261C372.377 403.261 375.612 418.629 373.186 422.674C370.759 426.718 386.937 432.38 386.937 432.38L402.305 425.909C402.305 425.909 398.261 400.834 402.305 395.981L372.377 403.261Z" fill="black"/>
<path d="M357.219 588.056C359.393 592.565 361.182 597.251 362.564 602.063C362.586 602.222 362.642 602.375 362.728 602.51C362.814 602.646 362.927 602.762 363.061 602.851C363.194 602.94 363.345 603 363.504 603.026C363.662 603.053 363.824 603.045 363.98 603.005L378.367 602.989C380.143 602.987 382.525 602.417 382.506 600.641C382.493 599.394 381.218 598.616 380.269 597.806C377.635 595.559 376.95 591.853 375.859 588.568C373.739 582.238 369.653 576.75 364.197 572.904C363.459 572.326 362.61 571.907 361.703 571.672C360.791 571.539 359.862 571.59 358.97 571.82C356.444 572.329 347.013 574.073 348.795 577.746C349.562 579.328 352.405 580.975 353.597 582.452C354.986 584.196 356.199 586.073 357.219 588.056Z" fill="#575A89"/>
<path d="M407.25 571.369C406.743 572.435 406.179 573.473 405.559 574.478C403.475 577.916 401.015 581.123 399.074 584.643C397.765 586.794 396.957 589.212 396.71 591.717C396.599 592.97 396.791 594.231 397.269 595.394C397.747 596.557 398.497 597.589 399.456 598.402C401.545 599.987 404.408 600.06 407.004 599.691C409.599 599.322 412.18 598.578 414.795 598.774C413.913 593.786 418.12 589.396 419.172 584.441C419.468 583.049 419.511 581.606 419.908 580.239C420.334 578.99 420.879 577.784 421.536 576.639C423.631 572.559 425.111 568.192 425.93 563.68C426.029 563.133 413.141 563.043 411.932 563.304C408.159 564.12 408.711 568.24 407.25 571.369Z" fill="#575A89"/>
<path d="M307.913 493.003C304.234 498.761 305.082 506.391 307.666 512.717C310.25 519.042 314.363 524.634 317.178 530.86C318.972 534.829 320.231 539.038 322.252 542.897C324.754 547.675 328.408 551.888 330.087 557.014C331.157 560.281 331.403 563.863 333.137 566.832C334.185 568.419 335.381 569.903 336.709 571.264C340.444 575.543 343.248 580.551 344.943 585.972C346.528 581.251 351.274 578.156 356.147 577.135C361.021 576.114 366.072 576.807 371.003 577.504C368.252 573.243 365.475 568.927 363.835 564.128C362.249 559.486 361.782 554.548 360.713 549.761C358.523 539.943 353.844 530.888 349.211 521.96L373.022 520.071C376.908 519.681 380.815 519.536 384.72 519.637C390.866 519.927 396.886 521.433 402.999 522.13C409.112 522.826 415.579 522.644 421.027 519.784C410.61 534.731 405.185 552.588 405.527 570.804C407.855 569 410.557 567.739 413.436 567.115C416.314 566.49 419.296 566.517 422.162 567.193C425.029 567.87 427.708 569.179 430.004 571.025C432.299 572.87 434.152 575.206 435.429 577.86C444.76 565.109 443.65 547.358 451.044 533.394C452.565 530.522 454.428 527.848 456.069 525.043C459.169 519.412 461.824 513.546 464.008 507.499C466.076 502.209 468.16 496.323 466.176 491.001C465.353 488.981 464.153 487.137 462.641 485.565C458.375 480.862 452.437 477.382 446.089 477.237C436.344 477.015 428.293 484.239 419.745 488.923C409.539 494.347 397.996 496.741 386.476 495.822C374.733 494.991 363.519 491.147 352.331 487.762C346.735 485.99 341.046 484.522 335.291 483.366C330.493 482.466 325.924 483.463 321.197 484.69C316.049 486.026 310.876 488.367 307.913 493.003Z" fill="#2F2E41"/>
<path d="M409.585 387.893C409.579 394.327 407.021 400.496 402.471 405.045C397.922 409.595 391.753 412.153 385.319 412.158C383.873 412.161 382.43 412.031 381.007 411.77C376.466 410.95 372.253 408.852 368.862 405.722C365.471 402.592 363.043 398.56 361.862 394.099C360.682 389.638 360.798 384.932 362.197 380.535C363.596 376.137 366.22 372.23 369.761 369.271C373.303 366.312 377.614 364.424 382.19 363.829C386.767 363.234 391.418 363.956 395.598 365.911C399.778 367.866 403.314 370.972 405.792 374.865C408.269 378.759 409.585 383.278 409.585 387.893Z" fill="#FFB9B9"/>
<path d="M371.163 410.945C371.163 410.945 375.612 412.967 377.23 414.585C378.847 416.203 383.7 425.1 391.789 419.438C399.878 413.776 400.687 410.541 403.113 410.541C405.54 410.541 408.775 415.394 408.775 415.394L431.019 482.125C425.024 488.892 418.076 494.75 410.393 499.516C397.451 507.604 382.083 511.649 374.803 508.413C367.523 505.178 353.773 502.751 351.346 496.28C348.919 489.809 344.875 470.397 344.875 470.397L356.199 421.056L371.163 410.945Z" fill="#F2F2F2"/>
<path d="M368.038 478.435C369.802 474.626 370.058 470.315 370.207 466.12C370.445 461.965 370.335 457.798 369.878 453.661C369.161 448.251 367.399 443.038 366.287 437.695C365.311 433.008 364.837 428.232 364.872 423.445C364.888 421.261 365.046 418.961 366.237 417.13C367.067 415.852 368.366 414.863 368.885 413.43C369.902 410.621 367.388 407.679 364.634 406.522C361.278 405.264 357.608 405.117 354.163 406.102C350.745 407.089 347.443 408.44 344.314 410.131C341.947 411.14 339.77 412.547 337.878 414.291C335.368 416.889 334.264 420.508 333.372 424.009C332.659 426.812 332.024 429.734 332.567 432.575C333.449 437.187 337.209 440.656 339.214 444.903C341.541 449.835 341.385 455.581 340.459 460.955C339.533 466.329 337.889 471.584 337.383 477.013C336.876 482.443 337.654 488.279 341.055 492.542C342.442 494.278 346.202 498.395 348.74 497.929C350.733 497.563 353.624 493.174 355.23 491.783C359.869 487.764 365.374 484.19 368.038 478.435Z" fill="#2F2E41"/>
<path d="M410.418 408.307C410.489 412.818 408.5 417.107 406.162 420.965C403.823 424.823 401.076 428.473 399.353 432.642C397.211 437.862 396.774 443.625 398.103 449.108C398.598 450.976 399.193 452.815 399.888 454.618L404.32 466.774C404.916 468.685 405.781 470.502 406.889 472.169C407.891 473.447 409.067 474.577 410.382 475.529C413.748 478.248 417.622 480.268 421.778 481.474C425.962 482.671 430.428 482.416 434.449 480.751C434.877 464.272 437.524 447.925 442.321 432.153C443.207 429.242 444.175 426.177 443.491 423.211C442.726 419.889 440.058 417.395 437.521 415.118C429.765 408.152 421.235 400.835 410.852 399.896C404.843 399.353 410.367 405.046 410.418 408.307Z" fill="#2F2E41"/>
<path d="M357.337 502.349C357.952 503.554 358.335 504.865 358.943 506.073C359.841 507.692 360.951 509.185 362.244 510.511C367.652 516.508 374.263 522.482 382.33 522.843C383.132 522.918 383.94 522.817 384.698 522.545C385.38 522.196 385.966 521.685 386.405 521.057C386.844 520.43 387.123 519.704 387.217 518.943C387.789 515.811 386.407 512.685 385.022 509.817C382.021 503.603 378.645 497.23 373.027 493.222C370.222 491.299 367.017 490.038 363.654 489.532C360.291 489.026 356.857 489.289 353.61 490.301C350.684 491.202 345.831 492.776 349.706 495.446C352.645 497.472 355.633 499.014 357.337 502.349Z" fill="#FFB9B9"/>
<path d="M392.21 423.225C391.368 420.951 390.077 418.87 388.414 417.105C386.736 415.687 384.751 414.681 382.615 414.167C379.848 413.377 376.986 412.966 374.109 412.948C370.683 412.927 366.711 413.845 365.256 416.947C364.101 419.41 364.997 422.326 366.16 424.785C366.657 426.059 367.485 427.177 368.558 428.025C370.035 429.023 371.946 428.991 373.697 429.325C376.412 430.015 378.984 431.18 381.292 432.767L387.292 436.394L397.598 442.623C397.327 442.459 397.423 435.392 397.107 434.234C396.087 430.503 393.791 426.759 392.21 423.225Z" fill="#FFB9B9"/>
<path d="M362.188 600.232C359.777 603.509 360.26 608.193 358.124 611.656C356.273 614.658 352.783 616.231 350.467 618.891C349.728 619.775 349.069 620.723 348.499 621.723C346.35 625.322 344.604 629.934 346.72 633.552C348.422 636.462 352 637.6 355.281 638.375C359.428 639.355 363.737 640.139 367.932 639.39C372.128 638.641 376.228 636.073 377.723 632.082C378.017 631.079 378.367 630.093 378.77 629.128C381.044 624.652 388.176 624.603 390.503 620.154C392.132 617.041 390.635 613.277 389.138 610.098L384.568 600.389C383.051 597.167 376.903 599.02 373.698 598.247C369.517 597.24 365.196 596.131 362.188 600.232Z" fill="#2F2E41"/>
<path d="M397.539 591.891C395.668 593.364 394.237 595.324 393.404 597.556C391.142 602.774 390.365 608.495 389.611 614.132C389.181 616.374 389.137 618.673 389.48 620.931C390.455 625.534 394.627 628.925 399.117 630.332C403.607 631.74 408.424 631.523 413.124 631.293C414.64 631.331 416.145 631.026 417.527 630.398C419.889 629.096 420.812 626.034 420.407 623.367C420.002 620.701 418.545 618.328 417.119 616.038C415.692 613.749 414.234 611.377 413.826 608.711C413.139 604.226 415.077 597.642 412.322 593.584C409.561 589.518 401.224 589.308 397.539 591.891Z" fill="#2F2E41"/>
<path d="M408.973 375.246C408.541 373.795 407.59 372.554 406.302 371.759C406.368 370.205 406.178 368.65 405.738 367.158C404.268 362.813 400.787 363.062 397.502 361.142C396.077 360.308 396.165 359.572 395.423 358.203C394.451 356.409 392.995 354.923 391.221 353.915C389.113 352.572 386.889 351.19 384.396 351.02C379.157 350.663 375.14 355.59 370.133 357.172C367.926 357.869 365.554 357.898 363.336 358.557C361.117 359.216 358.903 360.789 358.573 363.08C358.42 364.137 358.689 365.222 358.534 366.28C358.227 368.381 356.383 369.853 355.149 371.581C352.42 375.403 352.732 380.803 354.914 384.962C355.374 385.822 355.9 386.646 356.488 387.424C356.67 389.39 357.235 391.301 358.15 393.05C360.332 397.209 364.088 400.317 368.011 402.898C367.69 401.519 367.495 400.113 367.429 398.699C367.374 398.227 367.435 397.75 367.608 397.307C368.045 396.394 369.199 396.151 370.079 395.651C371.903 394.615 372.618 392.322 372.67 390.226C372.723 388.129 372.279 386.03 372.498 383.944C372.507 383.465 372.616 382.992 372.818 382.557C373.021 382.122 373.312 381.735 373.673 381.419C374.346 381.035 375.115 380.852 375.889 380.891C379.624 380.739 383.527 380.67 386.822 378.904C387.885 378.198 389.027 377.62 390.225 377.182C393.026 376.452 395.888 378.415 397.501 380.817C399.115 383.219 399.92 386.077 401.409 388.559C402.898 391.04 405.47 393.253 408.349 392.959C408.511 392.959 408.672 392.926 408.82 392.86C408.968 392.794 409.1 392.697 409.209 392.577C409.333 392.354 409.388 392.099 409.367 391.844L409.528 380.84C409.662 378.957 409.474 377.066 408.973 375.246Z" fill="#2F2E41"/>
<path d="M332.179 432.809C329.864 436.225 327.194 439.509 325.922 443.435C325.174 445.742 324.941 448.18 324.4 450.545C322.596 458.419 317.385 465.413 316.861 473.474C316.678 475.265 316.941 477.074 317.627 478.739C319.122 481.991 322.699 483.704 326.112 484.782C329.525 485.86 333.189 486.637 335.913 488.958C337.285 490.273 338.528 491.714 339.627 493.264C344.071 498.791 350.05 502.881 356.811 505.021C356.277 501.341 356.027 496.904 358.969 494.629C360.561 493.398 362.689 493.179 364.695 493.005L374.172 492.186C367.853 486.057 360.887 480.63 353.397 476.002C350.776 474.383 347.924 472.675 346.727 469.837C346.109 468.008 345.853 466.076 345.972 464.149C345.907 457.101 345.31 450.067 344.186 443.109C343.406 438.277 342.373 433.488 341.192 428.739C340.86 427.405 338.899 421.425 336.486 422.824C335.918 423.154 335.386 426.948 335.054 427.735C334.264 429.516 333.301 431.216 332.179 432.809Z" fill="#2F2E41"/>
<path d="M441.336 419.902L445.207 427.951C447.071 431.261 447.92 435.046 447.647 438.835L447.877 462.98C448.055 466.206 447.788 469.441 447.083 472.594C446.841 473.633 446.387 474.611 445.748 475.465C445.091 476.202 444.318 476.825 443.459 477.309C436.134 481.886 426.636 484.487 418.897 480.652C417.125 479.707 415.439 478.607 413.861 477.365C410.777 475.081 407.647 472.752 405.34 469.685C402.925 466.475 401.541 462.632 399.916 458.959C397 452.369 393.233 446.19 388.711 440.579C387.961 439.838 387.474 438.872 387.323 437.829C387.275 435.712 389.786 434.671 391.744 433.865C395.089 432.49 398.243 429.835 398.802 426.262C405.915 435.589 413.764 445.444 424.987 448.853C425.163 448.965 425.366 449.028 425.575 449.034C425.784 449.041 425.99 448.99 426.173 448.889C426.356 448.787 426.507 448.639 426.612 448.458C426.717 448.277 426.771 448.072 426.769 447.863C427.405 445.197 427.631 442.452 428.097 439.751C428.952 434.833 430.598 430.086 432.971 425.695C434.3 423.233 438.605 414.22 441.336 419.902Z" fill="#2F2E41"/>
<path opacity="0.1" d="M345.294 443.178C345.4 448.892 344.187 454.554 341.747 459.721C341.112 460.864 340.644 462.091 340.358 463.366C339.933 466.085 341.481 468.718 343.25 470.826C346.739 474.973 351.265 478.122 356.367 479.952" fill="black"/>
<path opacity="0.1" d="M429.337 438.363C428.766 439.896 429.284 441.592 429.724 443.168C430.997 447.739 431.592 452.473 431.488 457.217C431.507 457.3 431.504 457.386 431.481 457.468C431.458 457.55 431.415 457.625 431.355 457.685C431.296 457.746 431.222 457.791 431.141 457.817C431.06 457.842 430.974 457.847 430.89 457.83C429.023 457.944 426.886 457.957 425.619 456.58" fill="black"/>
<path opacity="0.1" d="M746.607 667.001C816.195 667.001 872.607 654.913 872.607 640.001C872.607 625.09 816.195 613.001 746.607 613.001C677.02 613.001 620.607 625.09 620.607 640.001C620.607 654.913 677.02 667.001 746.607 667.001Z" fill="black"/>
<path d="M809.607 399.001L800.607 408.001L809.607 417.001L818.607 399.001H809.607Z" fill="#A0616A"/>
<path d="M811.634 320.961C814.16 321.994 815.361 324.82 816.313 327.378L827.988 358.749L830.26 364.856C831.375 367.85 832.49 370.847 833.432 373.9C834.029 375.831 834.555 377.782 835.011 379.753C835.485 381.439 835.666 383.194 835.549 384.942C835.234 386.864 834.532 388.703 833.486 390.348C829.424 397.422 823.64 403.355 816.67 407.594C816.268 405 815.223 402.549 813.628 400.464C812.034 398.378 809.942 396.726 807.544 395.659L813.581 392.338C814.858 391.739 816.007 390.897 816.964 389.861C817.549 389.052 817.964 388.133 818.186 387.16C818.408 386.187 818.432 385.18 818.256 384.197C817.893 382.237 817.292 380.329 816.464 378.516C814.438 373.46 812.681 368.302 811.198 363.062C810.321 359.962 809.516 356.776 807.778 354.064C806.202 351.603 803.919 349.636 802.487 347.088C800.304 343.206 800.36 338.427 801.324 334.078C802.137 330.407 803.502 326.875 804.65 323.301C805.552 320.493 808.93 319.854 811.634 320.961Z" fill="#D0CDE1"/>
<path d="M755.971 237.144C751.329 238.712 747.123 242.379 746.173 247.186C745.732 249.414 746.002 251.73 745.631 253.971C744.771 259.168 740.692 263.137 736.929 266.823C733.167 270.51 729.281 274.794 729.006 280.054C728.706 285.814 732.883 291.211 732.16 296.934C731.321 303.582 724.298 307.89 722.562 314.363C721.403 318.685 722.824 323.341 725.16 327.157C729.614 334.429 737.226 339.366 745.332 342.013C753.438 344.66 762.071 345.216 770.598 345.306C780.981 345.414 792.253 344.523 800.054 337.671C804.51 333.722 807.308 328.234 807.888 322.308C808.629 314.371 805.316 306.17 807.601 298.532C809.039 293.726 812.646 289.336 812.108 284.348C811.581 279.471 807.322 276.014 804.4 272.074C801.671 268.395 800.016 264.051 798.393 259.768L792.841 245.113C791.75 242.232 790.551 239.203 788.119 237.312C783.566 233.772 776.244 234.468 770.92 235.198C765.98 235.875 760.721 235.54 755.971 237.144Z" fill="#2F2E41"/>
<path d="M760.265 285.44C760.265 285.44 760.809 301.742 759.178 303.372C757.548 305.003 765.699 315.871 765.699 315.871L780.372 315.328L787.979 309.35L781.458 300.655C781.458 300.655 778.741 286.527 780.915 283.266C783.089 280.006 760.265 285.44 760.265 285.44Z" fill="#A0616A"/>
<path opacity="0.1" d="M760.265 285.44C760.265 285.44 760.809 301.742 759.178 303.372C757.548 305.003 765.699 315.871 765.699 315.871L780.372 315.328L787.979 309.35L781.458 300.655C781.458 300.655 778.741 286.527 780.915 283.266C783.089 280.006 760.265 285.44 760.265 285.44Z" fill="black"/>
<path d="M726.303 411.24L735.541 431.89L742.606 423.195L728.477 404.719L726.303 411.24Z" fill="#A0616A"/>
<path d="M701.579 618.009L697.775 639.203L691.254 648.441L695.058 650.614L701.579 649.527L709.187 646.81L712.447 634.312L718.425 618.009H701.579Z" fill="#A0616A"/>
<path d="M771.135 604.967L768.961 635.399L774.395 639.746L783.09 632.138V609.858L771.135 604.967Z" fill="#A0616A"/>
<path d="M769.233 291.689C780.037 291.689 788.796 282.93 788.796 272.126C788.796 261.322 780.037 252.563 769.233 252.563C758.428 252.563 749.67 261.322 749.67 272.126C749.67 282.93 758.428 291.689 769.233 291.689Z" fill="#A0616A"/>
<path d="M784.328 298.438C783.741 298.156 783.101 298.004 782.451 297.991C781.8 297.979 781.155 298.106 780.558 298.366C779.371 298.891 778.219 299.492 777.109 300.164C774.254 301.649 771.017 302.238 767.821 301.853C767.446 301.824 767.078 301.73 766.736 301.573C766.373 301.348 766.039 301.078 765.741 300.771C764.583 299.829 763.104 299.375 761.617 299.503C760.13 299.631 758.75 300.332 757.77 301.458C757.195 302.174 756.802 303.028 756.175 303.699C754.551 305.435 751.871 305.506 749.494 305.501C744.565 305.364 739.637 305.816 734.815 306.847C729.971 307.892 725.51 310.256 721.925 313.677C720.946 314.597 720.167 315.709 719.635 316.942C718.979 318.633 719.065 320.532 718.476 322.247C717.82 324.157 716.366 325.724 715.777 327.656C715.334 329.111 715.396 330.731 714.654 332.059C717.83 334.808 720.52 338.474 723.696 341.222C725.799 343.042 728 345.011 728.791 347.677C729.146 349.321 729.304 351.002 729.261 352.683C729.654 360.721 734.013 368.013 738.888 374.416C740.225 376.315 741.824 378.015 743.639 379.464C746.103 381.141 748.901 382.265 751.841 382.757C757.393 383.893 763.107 383.887 768.773 383.831C774.629 383.772 780.588 383.648 786.154 381.828C788.987 381.038 791.536 379.455 793.501 377.266C795.791 374.454 796.684 370.387 799.807 368.544C800.564 368.198 801.28 367.77 801.944 367.269C802.58 366.578 803.03 365.738 803.253 364.826C804.345 361.413 804.947 357.862 805.041 354.279C804.961 352.129 805.106 349.977 805.476 347.858C806.016 345.99 806.803 344.203 807.817 342.544L814.29 330.804C814.816 329.85 814.679 328.446 814.727 327.357C814.679 325.788 814.197 324.262 813.335 322.95C809.136 315.529 802.541 309.756 794.63 306.576C794.006 306.365 793.413 306.074 792.863 305.711C792.216 305.167 791.669 304.514 791.246 303.781C789.528 301.193 787.43 298.277 784.328 298.438Z" fill="#D0CDE1"/>
<path d="M703.653 362.374C702.376 365.478 701.439 368.71 700.857 372.015C700.232 376.581 700.968 381.23 702.973 385.38C706.462 392.56 713.33 397.43 718.177 403.773C722.68 409.667 725.362 416.731 729.262 423.04C728.582 421.434 729.408 419.575 730.521 418.232C731.634 416.889 733.057 415.775 733.873 414.234C734.428 413.04 734.778 411.761 734.906 410.45C735.488 406.538 735.802 402.287 733.807 398.872C732.306 396.301 729.713 394.593 727.659 392.437C725.606 390.243 724.097 387.598 723.253 384.714C722.41 381.83 722.256 378.788 722.803 375.834C723.199 373.8 723.925 371.848 724.47 369.849C725.144 367.162 725.654 364.437 725.997 361.688L728.445 344.881C729.095 340.41 729.646 335.463 727.114 331.722C726.62 330.938 725.937 330.292 725.128 329.843C724.458 329.536 723.745 329.335 723.014 329.247C720.351 328.812 716.744 327.646 715.443 330.499C713.874 333.944 712.781 337.698 711.467 341.25L703.653 362.374Z" fill="#D0CDE1"/>
<path d="M796.917 371.571C796.917 371.571 764.613 377.82 757.005 377.82H743.42C743.42 377.82 738.529 386.515 738.529 395.209C738.529 403.904 706.468 525.629 706.468 525.629C706.468 525.629 676.036 625.617 709.728 626.161C743.42 626.704 764.613 628.334 765.156 616.923C765.7 605.511 768.96 458.245 768.96 458.245L774.033 533.969C775.396 552.715 773.94 571.56 769.714 589.874C767.281 600.142 767.658 611.398 779.829 613.662C803.196 618.009 832.54 614.205 832.54 606.054C832.54 597.903 817.324 416.946 817.324 416.946C817.324 416.946 809.717 390.319 805.369 388.145C801.022 385.971 796.917 371.571 796.917 371.571Z" fill="#2F2E41"/>
<path d="M695.601 647.354L707.556 643.006L715.707 622.357L724.402 621.27C724.402 621.27 719.511 631.595 716.794 633.225C714.077 634.855 709.73 648.441 709.73 648.441C709.73 648.441 711.903 653.875 701.579 656.048C691.254 658.222 683.646 659.852 683.646 659.852C683.646 659.852 682.559 657.679 687.45 652.244C692.341 646.81 698.051 637.662 698.051 637.662L695.601 647.354Z" fill="#2F2E41"/>
<path d="M768.961 622.357L766.787 638.659C766.787 638.659 772.765 647.354 774.395 647.354C776.025 647.354 784.72 639.746 784.72 639.746C784.72 639.746 784.176 631.595 784.72 629.421C785.263 627.247 786.35 616.922 784.72 616.379C783.09 615.836 783.09 628.49 783.09 628.49L776.025 635.942L769.214 631.858L768.961 622.357Z" fill="#2F2E41"/>
<path d="M770.863 272.126C782.568 272.126 792.056 267.017 792.056 260.714C792.056 254.412 782.568 249.303 770.863 249.303C759.158 249.303 749.67 254.412 749.67 260.714C749.67 267.017 759.158 272.126 770.863 272.126Z" fill="#2F2E41"/>
<path d="M0 484.66C0 548.676 40.1604 600.477 89.7908 600.477L0 484.66Z" fill="#48414C"/>
<path d="M89.791 600.477C89.791 535.742 134.608 483.359 189.992 483.359L89.791 600.477Z" fill="#703594"/>
<path d="M32.5332 490.463C32.5332 551.272 58.1427 600.477 89.7911 600.477L32.5332 490.463Z" fill="#703594"/>
<path d="M89.791 600.477C89.791 517.76 141.592 450.826 205.608 450.826L89.791 600.477Z" fill="#3F3D56"/>
<path d="M70.9023 601.294C70.9023 601.294 83.6361 600.902 87.4737 598.169C91.3114 595.436 107.062 592.173 108.014 596.556C108.966 600.939 127.15 618.353 112.774 618.469C98.3973 618.585 79.3693 616.23 75.5391 613.897C71.7088 611.564 70.9023 601.294 70.9023 601.294Z" fill="#A8A8A8"/>
<path opacity="0.2" d="M113.03 616.944C98.6539 617.06 79.6259 614.705 75.7956 612.371C72.8786 610.595 71.7163 604.219 71.3274 601.277C71.058 601.289 70.9023 601.294 70.9023 601.294C70.9023 601.294 71.7088 611.564 75.5391 613.897C79.3694 616.23 98.3973 618.586 112.774 618.47C116.924 618.436 118.357 616.96 118.278 614.773C117.702 616.094 116.119 616.919 113.03 616.944Z" fill="black"/>
</g>
</svg>
