<svg width="170" height="172" viewBox="0 0 170 172" fill="none" xmlns="http://www.w3.org/2000/svg">
<path d="M129.792 101.792C131.243 101.792 131.968 103.755 131.968 107.68C131.968 109.813 131.072 112.416 129.28 115.488C127.488 118.475 125.141 121.248 122.24 123.808C119.424 126.283 116.267 128.331 112.768 129.952C109.269 131.573 105.557 132.384 101.632 132.384C97.792 132.384 94.7627 131.147 92.544 128.672C90.4107 126.112 89.344 123.296 89.344 120.224C89.344 117.067 89.856 113.525 90.88 109.6C91.904 105.675 93.0133 101.579 94.208 97.312C97.4507 85.9627 99.1147 77.984 99.2 73.376C99.2 71.4133 98.944 69.92 98.432 68.896C97.92 67.7867 96.9387 67.232 95.488 67.232C92.928 67.232 90.1973 68.768 87.296 71.84C84.3947 74.912 81.664 78.8373 79.104 83.616C73.216 94.5387 70.1013 105.205 69.76 115.616C69.9307 116.811 70.1013 118.005 70.272 119.2C70.4427 120.395 70.528 121.675 70.528 123.04C70.528 125.771 69.1627 128.288 66.432 130.592C63.7867 132.811 60.8 133.92 57.472 133.92C55.5093 133.92 54.0587 132.981 53.12 131.104C52.1813 129.141 51.712 126.752 51.712 123.936C51.712 121.12 52.352 117.28 53.632 112.416C54.912 107.552 56.32 102.389 57.856 96.928C61.952 82.5067 64.0427 71.7547 64.128 64.672C64.128 61.088 63.6587 58.272 62.72 56.224C61.8667 54.176 60.16 53.152 57.6 53.152C52.992 53.152 48.4267 56.4373 43.904 63.008C39.3813 69.5787 35.328 79.776 31.744 93.6C30.8053 97.184 30.08 100.299 29.568 102.944L29.44 105.376C31.0613 113.227 31.872 118.347 31.872 120.736C31.872 125.685 30.1227 129.013 26.624 130.72C25.0027 131.488 23.424 132.213 21.888 132.896C20.4373 133.579 18.8587 133.92 17.152 133.92C12.8853 133.92 10.752 129.867 10.752 121.76C10.752 113.568 13.0133 97.6107 17.536 73.888C19.1573 65.3547 19.968 60.576 19.968 59.552C19.968 52.64 18.2187 49.184 14.72 49.184C13.5253 49.184 12.416 49.5253 11.392 50.208C10.4533 50.8907 9.472 51.616 8.448 52.384C7.50933 53.152 6.528 53.8773 5.504 54.56C4.48 55.2427 3.28533 55.584 1.92 55.584C0.64 55.584 0 54.432 0 52.128C0 47.4347 2.176 43.5947 6.528 40.608C10.7093 37.536 15.7867 36 21.76 36C29.44 36 33.9627 39.584 35.328 46.752C35.6693 48.8853 35.9253 51.1467 36.096 53.536C42.4107 41.6747 50.3893 35.744 60.032 35.744C70.528 35.744 76.544 40.7787 78.08 50.848C78.592 53.7493 78.8053 56.864 78.72 60.192V61.216C84.2667 53.536 90.8373 49.696 98.432 49.696C109.184 49.696 114.56 56.1813 114.56 69.152C114.56 74.784 113.664 81.3973 111.872 88.992C110.165 96.5013 108.885 101.92 108.032 105.248C107.264 108.491 106.88 111.008 106.88 112.8C106.88 116.043 107.989 117.664 110.208 117.664C112.512 117.664 117.931 113.227 126.464 104.352C128 102.645 129.109 101.792 129.792 101.792Z" fill="black"/>
<g clip-path="url(#clip0_420_60)">
<path d="M119.68 111.097L129.416 101.166C129.855 100.718 130.451 100.469 131.076 100.469H132.668C129.973 96.9525 128.371 92.5299 128.371 87.7187C128.371 76.2736 137.463 67 148.684 67C159.904 67 168.996 76.2736 168.996 87.7187C168.996 99.1639 159.904 108.437 148.684 108.437C143.967 108.437 139.631 106.804 136.184 104.055V105.678C136.184 106.316 135.939 106.923 135.5 107.372L126.996 117.303C126.078 118.239 123.361 118.239 122.453 117.303L119.689 114.484C118.771 113.547 118.771 112.033 119.68 111.097ZM148.684 100.469C155.588 100.469 161.184 94.7711 161.184 87.7187C161.184 80.6764 155.598 74.9687 148.684 74.9687C141.779 74.9687 136.184 80.6664 136.184 87.7187C136.184 94.7611 141.77 100.469 148.684 100.469Z" fill="black"/>
</g>
<defs>
<clipPath id="clip0_420_60">
<rect width="50" height="51" fill="white" transform="matrix(-1 0 0 1 170 67)"/>
</clipPath>
</defs>
</svg>
